G04 #@! TF.GenerationSoftware,KiCad,Pcbnew,(5.1.5)-1*
G04 #@! TF.CreationDate,2021-04-01T17:00:37+02:00*
G04 #@! TF.ProjectId,KonstantStromQuelle,4b6f6e73-7461-46e7-9453-74726f6d5175,rev?*
G04 #@! TF.SameCoordinates,Original*
G04 #@! TF.FileFunction,Soldermask,Bot*
G04 #@! TF.FilePolarity,Negative*
%FSLAX46Y46*%
G04 Gerber Fmt 4.6, Leading zero omitted, Abs format (unit mm)*
G04 Created by KiCad (PCBNEW (5.1.5)-1) date 2021-04-01 17:00:37*
%MOMM*%
%LPD*%
G04 APERTURE LIST*
%ADD10C,0.100000*%
G04 APERTURE END LIST*
D10*
G36*
X121562395Y-80365546D02*
G01*
X121735466Y-80437234D01*
X121735467Y-80437235D01*
X121891227Y-80541310D01*
X122023690Y-80673773D01*
X122023691Y-80673775D01*
X122127766Y-80829534D01*
X122199454Y-81002605D01*
X122236000Y-81186333D01*
X122236000Y-81373667D01*
X122199454Y-81557395D01*
X122127766Y-81730466D01*
X122127765Y-81730467D01*
X122023690Y-81886227D01*
X121891227Y-82018690D01*
X121850354Y-82046000D01*
X121735466Y-82122766D01*
X121562395Y-82194454D01*
X121378667Y-82231000D01*
X121191333Y-82231000D01*
X121007605Y-82194454D01*
X120834534Y-82122766D01*
X120719646Y-82046000D01*
X120678773Y-82018690D01*
X120546310Y-81886227D01*
X120442235Y-81730467D01*
X120442234Y-81730466D01*
X120370546Y-81557395D01*
X120334000Y-81373667D01*
X120334000Y-81186333D01*
X120370546Y-81002605D01*
X120442234Y-80829534D01*
X120546309Y-80673775D01*
X120546310Y-80673773D01*
X120678773Y-80541310D01*
X120834533Y-80437235D01*
X120834534Y-80437234D01*
X121007605Y-80365546D01*
X121191333Y-80329000D01*
X121378667Y-80329000D01*
X121562395Y-80365546D01*
G37*
G36*
X136167395Y-80365546D02*
G01*
X136340466Y-80437234D01*
X136340467Y-80437235D01*
X136496227Y-80541310D01*
X136628690Y-80673773D01*
X136628691Y-80673775D01*
X136732766Y-80829534D01*
X136804454Y-81002605D01*
X136841000Y-81186333D01*
X136841000Y-81373667D01*
X136804454Y-81557395D01*
X136732766Y-81730466D01*
X136732765Y-81730467D01*
X136628690Y-81886227D01*
X136496227Y-82018690D01*
X136455354Y-82046000D01*
X136340466Y-82122766D01*
X136167395Y-82194454D01*
X135983667Y-82231000D01*
X135796333Y-82231000D01*
X135612605Y-82194454D01*
X135439534Y-82122766D01*
X135324646Y-82046000D01*
X135283773Y-82018690D01*
X135151310Y-81886227D01*
X135047235Y-81730467D01*
X135047234Y-81730466D01*
X134975546Y-81557395D01*
X134939000Y-81373667D01*
X134939000Y-81186333D01*
X134975546Y-81002605D01*
X135047234Y-80829534D01*
X135151309Y-80673775D01*
X135151310Y-80673773D01*
X135283773Y-80541310D01*
X135439533Y-80437235D01*
X135439534Y-80437234D01*
X135612605Y-80365546D01*
X135796333Y-80329000D01*
X135983667Y-80329000D01*
X136167395Y-80365546D01*
G37*
G36*
X124596000Y-82046000D02*
G01*
X123594000Y-82046000D01*
X123594000Y-81144000D01*
X124596000Y-81144000D01*
X124596000Y-82046000D01*
G37*
G36*
X126596000Y-81096000D02*
G01*
X125594000Y-81096000D01*
X125594000Y-80194000D01*
X126596000Y-80194000D01*
X126596000Y-81096000D01*
G37*
G36*
X124596000Y-80146000D02*
G01*
X123594000Y-80146000D01*
X123594000Y-79244000D01*
X124596000Y-79244000D01*
X124596000Y-80146000D01*
G37*
G36*
X122045589Y-76073876D02*
G01*
X122144893Y-76093629D01*
X122285206Y-76151748D01*
X122411484Y-76236125D01*
X122518875Y-76343516D01*
X122603252Y-76469794D01*
X122661371Y-76610107D01*
X122691000Y-76759063D01*
X122691000Y-76910937D01*
X122661371Y-77059893D01*
X122603252Y-77200206D01*
X122518875Y-77326484D01*
X122411484Y-77433875D01*
X122285206Y-77518252D01*
X122144893Y-77576371D01*
X122045589Y-77596124D01*
X121995938Y-77606000D01*
X121844062Y-77606000D01*
X121794411Y-77596124D01*
X121695107Y-77576371D01*
X121554794Y-77518252D01*
X121428516Y-77433875D01*
X121321125Y-77326484D01*
X121236748Y-77200206D01*
X121178629Y-77059893D01*
X121149000Y-76910937D01*
X121149000Y-76759063D01*
X121178629Y-76610107D01*
X121236748Y-76469794D01*
X121321125Y-76343516D01*
X121428516Y-76236125D01*
X121554794Y-76151748D01*
X121695107Y-76093629D01*
X121794411Y-76073876D01*
X121844062Y-76064000D01*
X121995938Y-76064000D01*
X122045589Y-76073876D01*
G37*
G36*
X125870562Y-75658181D02*
G01*
X125905481Y-75668774D01*
X125937663Y-75685976D01*
X125965873Y-75709127D01*
X125989024Y-75737337D01*
X126006226Y-75769519D01*
X126016819Y-75804438D01*
X126021000Y-75846895D01*
X126021000Y-76988105D01*
X126016819Y-77030562D01*
X126006226Y-77065481D01*
X125989024Y-77097663D01*
X125965873Y-77125873D01*
X125937663Y-77149024D01*
X125905481Y-77166226D01*
X125870562Y-77176819D01*
X125828105Y-77181000D01*
X124361895Y-77181000D01*
X124319438Y-77176819D01*
X124284519Y-77166226D01*
X124252337Y-77149024D01*
X124224127Y-77125873D01*
X124200976Y-77097663D01*
X124183774Y-77065481D01*
X124173181Y-77030562D01*
X124169000Y-76988105D01*
X124169000Y-75846895D01*
X124173181Y-75804438D01*
X124183774Y-75769519D01*
X124200976Y-75737337D01*
X124224127Y-75709127D01*
X124252337Y-75685976D01*
X124284519Y-75668774D01*
X124319438Y-75658181D01*
X124361895Y-75654000D01*
X125828105Y-75654000D01*
X125870562Y-75658181D01*
G37*
G36*
X122045589Y-73533876D02*
G01*
X122144893Y-73553629D01*
X122285206Y-73611748D01*
X122411484Y-73696125D01*
X122518875Y-73803516D01*
X122603252Y-73929794D01*
X122661371Y-74070107D01*
X122691000Y-74219063D01*
X122691000Y-74370937D01*
X122661371Y-74519893D01*
X122603252Y-74660206D01*
X122518875Y-74786484D01*
X122411484Y-74893875D01*
X122285206Y-74978252D01*
X122144893Y-75036371D01*
X122045589Y-75056124D01*
X121995938Y-75066000D01*
X121844062Y-75066000D01*
X121794411Y-75056124D01*
X121695107Y-75036371D01*
X121554794Y-74978252D01*
X121428516Y-74893875D01*
X121321125Y-74786484D01*
X121236748Y-74660206D01*
X121178629Y-74519893D01*
X121149000Y-74370937D01*
X121149000Y-74219063D01*
X121178629Y-74070107D01*
X121236748Y-73929794D01*
X121321125Y-73803516D01*
X121428516Y-73696125D01*
X121554794Y-73611748D01*
X121695107Y-73553629D01*
X121794411Y-73533876D01*
X121844062Y-73524000D01*
X121995938Y-73524000D01*
X122045589Y-73533876D01*
G37*
G36*
X125870562Y-72683181D02*
G01*
X125905481Y-72693774D01*
X125937663Y-72710976D01*
X125965873Y-72734127D01*
X125989024Y-72762337D01*
X126006226Y-72794519D01*
X126016819Y-72829438D01*
X126021000Y-72871895D01*
X126021000Y-74013105D01*
X126016819Y-74055562D01*
X126006226Y-74090481D01*
X125989024Y-74122663D01*
X125965873Y-74150873D01*
X125937663Y-74174024D01*
X125905481Y-74191226D01*
X125870562Y-74201819D01*
X125828105Y-74206000D01*
X124361895Y-74206000D01*
X124319438Y-74201819D01*
X124284519Y-74191226D01*
X124252337Y-74174024D01*
X124224127Y-74150873D01*
X124200976Y-74122663D01*
X124183774Y-74090481D01*
X124173181Y-74055562D01*
X124169000Y-74013105D01*
X124169000Y-72871895D01*
X124173181Y-72829438D01*
X124183774Y-72794519D01*
X124200976Y-72762337D01*
X124224127Y-72734127D01*
X124252337Y-72710976D01*
X124284519Y-72693774D01*
X124319438Y-72683181D01*
X124361895Y-72679000D01*
X125828105Y-72679000D01*
X125870562Y-72683181D01*
G37*
G36*
X122045589Y-70993876D02*
G01*
X122144893Y-71013629D01*
X122285206Y-71071748D01*
X122411484Y-71156125D01*
X122518875Y-71263516D01*
X122603252Y-71389794D01*
X122661371Y-71530107D01*
X122691000Y-71679063D01*
X122691000Y-71830937D01*
X122661371Y-71979893D01*
X122603252Y-72120206D01*
X122518875Y-72246484D01*
X122411484Y-72353875D01*
X122285206Y-72438252D01*
X122144893Y-72496371D01*
X122045589Y-72516124D01*
X121995938Y-72526000D01*
X121844062Y-72526000D01*
X121794411Y-72516124D01*
X121695107Y-72496371D01*
X121554794Y-72438252D01*
X121428516Y-72353875D01*
X121321125Y-72246484D01*
X121236748Y-72120206D01*
X121178629Y-71979893D01*
X121149000Y-71830937D01*
X121149000Y-71679063D01*
X121178629Y-71530107D01*
X121236748Y-71389794D01*
X121321125Y-71263516D01*
X121428516Y-71156125D01*
X121554794Y-71071748D01*
X121695107Y-71013629D01*
X121794411Y-70993876D01*
X121844062Y-70984000D01*
X121995938Y-70984000D01*
X122045589Y-70993876D01*
G37*
G36*
X126531000Y-60491000D02*
G01*
X124929000Y-60491000D01*
X124929000Y-58889000D01*
X126531000Y-58889000D01*
X126531000Y-60491000D01*
G37*
G36*
X131043642Y-58919781D02*
G01*
X131189414Y-58980162D01*
X131189416Y-58980163D01*
X131320608Y-59067822D01*
X131432178Y-59179392D01*
X131519837Y-59310584D01*
X131519838Y-59310586D01*
X131580219Y-59456358D01*
X131611000Y-59611107D01*
X131611000Y-59768893D01*
X131580219Y-59923642D01*
X131519838Y-60069414D01*
X131519837Y-60069416D01*
X131432178Y-60200608D01*
X131320608Y-60312178D01*
X131189416Y-60399837D01*
X131189415Y-60399838D01*
X131189414Y-60399838D01*
X131043642Y-60460219D01*
X130888893Y-60491000D01*
X130731107Y-60491000D01*
X130576358Y-60460219D01*
X130430586Y-60399838D01*
X130430585Y-60399838D01*
X130430584Y-60399837D01*
X130299392Y-60312178D01*
X130187822Y-60200608D01*
X130100163Y-60069416D01*
X130100162Y-60069414D01*
X130039781Y-59923642D01*
X130009000Y-59768893D01*
X130009000Y-59611107D01*
X130039781Y-59456358D01*
X130100162Y-59310586D01*
X130100163Y-59310584D01*
X130187822Y-59179392D01*
X130299392Y-59067822D01*
X130430584Y-58980163D01*
X130430586Y-58980162D01*
X130576358Y-58919781D01*
X130731107Y-58889000D01*
X130888893Y-58889000D01*
X131043642Y-58919781D01*
G37*
G36*
X128503642Y-58919781D02*
G01*
X128649414Y-58980162D01*
X128649416Y-58980163D01*
X128780608Y-59067822D01*
X128892178Y-59179392D01*
X128979837Y-59310584D01*
X128979838Y-59310586D01*
X129040219Y-59456358D01*
X129071000Y-59611107D01*
X129071000Y-59768893D01*
X129040219Y-59923642D01*
X128979838Y-60069414D01*
X128979837Y-60069416D01*
X128892178Y-60200608D01*
X128780608Y-60312178D01*
X128649416Y-60399837D01*
X128649415Y-60399838D01*
X128649414Y-60399838D01*
X128503642Y-60460219D01*
X128348893Y-60491000D01*
X128191107Y-60491000D01*
X128036358Y-60460219D01*
X127890586Y-60399838D01*
X127890585Y-60399838D01*
X127890584Y-60399837D01*
X127759392Y-60312178D01*
X127647822Y-60200608D01*
X127560163Y-60069416D01*
X127560162Y-60069414D01*
X127499781Y-59923642D01*
X127469000Y-59768893D01*
X127469000Y-59611107D01*
X127499781Y-59456358D01*
X127560162Y-59310586D01*
X127560163Y-59310584D01*
X127647822Y-59179392D01*
X127759392Y-59067822D01*
X127890584Y-58980163D01*
X127890586Y-58980162D01*
X128036358Y-58919781D01*
X128191107Y-58889000D01*
X128348893Y-58889000D01*
X128503642Y-58919781D01*
G37*
M02*
