G04 #@! TF.GenerationSoftware,KiCad,Pcbnew,(5.1.5)-1*
G04 #@! TF.CreationDate,2021-04-01T17:00:37+02:00*
G04 #@! TF.ProjectId,KonstantStromQuelle,4b6f6e73-7461-46e7-9453-74726f6d5175,rev?*
G04 #@! TF.SameCoordinates,Original*
G04 #@! TF.FileFunction,Copper,L1,Top*
G04 #@! TF.FilePolarity,Positive*
%FSLAX46Y46*%
G04 Gerber Fmt 4.6, Leading zero omitted, Abs format (unit mm)*
G04 Created by KiCad (PCBNEW (5.1.5)-1) date 2021-04-01 17:00:37*
%MOMM*%
%LPD*%
G04 APERTURE LIST*
%ADD10C,0.100000*%
%ADD11C,1.500000*%
%ADD12R,1.500000X1.500000*%
%ADD13C,1.800000*%
%ADD14R,0.900000X0.800000*%
%ADD15C,1.440000*%
%ADD16C,0.700000*%
%ADD17C,0.800000*%
%ADD18C,0.250000*%
%ADD19C,0.500000*%
%ADD20C,0.150000*%
%ADD21C,0.254000*%
G04 APERTURE END LIST*
G04 #@! TA.AperFunction,SMDPad,CuDef*
D10*
G36*
X127958504Y-65674204D02*
G01*
X127982773Y-65677804D01*
X128006571Y-65683765D01*
X128029671Y-65692030D01*
X128051849Y-65702520D01*
X128072893Y-65715133D01*
X128092598Y-65729747D01*
X128110777Y-65746223D01*
X128127253Y-65764402D01*
X128141867Y-65784107D01*
X128154480Y-65805151D01*
X128164970Y-65827329D01*
X128173235Y-65850429D01*
X128179196Y-65874227D01*
X128182796Y-65898496D01*
X128184000Y-65923000D01*
X128184000Y-67173000D01*
X128182796Y-67197504D01*
X128179196Y-67221773D01*
X128173235Y-67245571D01*
X128164970Y-67268671D01*
X128154480Y-67290849D01*
X128141867Y-67311893D01*
X128127253Y-67331598D01*
X128110777Y-67349777D01*
X128092598Y-67366253D01*
X128072893Y-67380867D01*
X128051849Y-67393480D01*
X128029671Y-67403970D01*
X128006571Y-67412235D01*
X127982773Y-67418196D01*
X127958504Y-67421796D01*
X127934000Y-67423000D01*
X127009000Y-67423000D01*
X126984496Y-67421796D01*
X126960227Y-67418196D01*
X126936429Y-67412235D01*
X126913329Y-67403970D01*
X126891151Y-67393480D01*
X126870107Y-67380867D01*
X126850402Y-67366253D01*
X126832223Y-67349777D01*
X126815747Y-67331598D01*
X126801133Y-67311893D01*
X126788520Y-67290849D01*
X126778030Y-67268671D01*
X126769765Y-67245571D01*
X126763804Y-67221773D01*
X126760204Y-67197504D01*
X126759000Y-67173000D01*
X126759000Y-65923000D01*
X126760204Y-65898496D01*
X126763804Y-65874227D01*
X126769765Y-65850429D01*
X126778030Y-65827329D01*
X126788520Y-65805151D01*
X126801133Y-65784107D01*
X126815747Y-65764402D01*
X126832223Y-65746223D01*
X126850402Y-65729747D01*
X126870107Y-65715133D01*
X126891151Y-65702520D01*
X126913329Y-65692030D01*
X126936429Y-65683765D01*
X126960227Y-65677804D01*
X126984496Y-65674204D01*
X127009000Y-65673000D01*
X127934000Y-65673000D01*
X127958504Y-65674204D01*
G37*
G04 #@! TD.AperFunction*
G04 #@! TA.AperFunction,SMDPad,CuDef*
G36*
X124983504Y-65674204D02*
G01*
X125007773Y-65677804D01*
X125031571Y-65683765D01*
X125054671Y-65692030D01*
X125076849Y-65702520D01*
X125097893Y-65715133D01*
X125117598Y-65729747D01*
X125135777Y-65746223D01*
X125152253Y-65764402D01*
X125166867Y-65784107D01*
X125179480Y-65805151D01*
X125189970Y-65827329D01*
X125198235Y-65850429D01*
X125204196Y-65874227D01*
X125207796Y-65898496D01*
X125209000Y-65923000D01*
X125209000Y-67173000D01*
X125207796Y-67197504D01*
X125204196Y-67221773D01*
X125198235Y-67245571D01*
X125189970Y-67268671D01*
X125179480Y-67290849D01*
X125166867Y-67311893D01*
X125152253Y-67331598D01*
X125135777Y-67349777D01*
X125117598Y-67366253D01*
X125097893Y-67380867D01*
X125076849Y-67393480D01*
X125054671Y-67403970D01*
X125031571Y-67412235D01*
X125007773Y-67418196D01*
X124983504Y-67421796D01*
X124959000Y-67423000D01*
X124034000Y-67423000D01*
X124009496Y-67421796D01*
X123985227Y-67418196D01*
X123961429Y-67412235D01*
X123938329Y-67403970D01*
X123916151Y-67393480D01*
X123895107Y-67380867D01*
X123875402Y-67366253D01*
X123857223Y-67349777D01*
X123840747Y-67331598D01*
X123826133Y-67311893D01*
X123813520Y-67290849D01*
X123803030Y-67268671D01*
X123794765Y-67245571D01*
X123788804Y-67221773D01*
X123785204Y-67197504D01*
X123784000Y-67173000D01*
X123784000Y-65923000D01*
X123785204Y-65898496D01*
X123788804Y-65874227D01*
X123794765Y-65850429D01*
X123803030Y-65827329D01*
X123813520Y-65805151D01*
X123826133Y-65784107D01*
X123840747Y-65764402D01*
X123857223Y-65746223D01*
X123875402Y-65729747D01*
X123895107Y-65715133D01*
X123916151Y-65702520D01*
X123938329Y-65692030D01*
X123961429Y-65683765D01*
X123985227Y-65677804D01*
X124009496Y-65674204D01*
X124034000Y-65673000D01*
X124959000Y-65673000D01*
X124983504Y-65674204D01*
G37*
G04 #@! TD.AperFunction*
G04 #@! TA.AperFunction,SMDPad,CuDef*
G36*
X129499505Y-71056204D02*
G01*
X129523773Y-71059804D01*
X129547572Y-71065765D01*
X129570671Y-71074030D01*
X129592850Y-71084520D01*
X129613893Y-71097132D01*
X129633599Y-71111747D01*
X129651777Y-71128223D01*
X129668253Y-71146401D01*
X129682868Y-71166107D01*
X129695480Y-71187150D01*
X129705970Y-71209329D01*
X129714235Y-71232428D01*
X129720196Y-71256227D01*
X129723796Y-71280495D01*
X129725000Y-71304999D01*
X129725000Y-72205001D01*
X129723796Y-72229505D01*
X129720196Y-72253773D01*
X129714235Y-72277572D01*
X129705970Y-72300671D01*
X129695480Y-72322850D01*
X129682868Y-72343893D01*
X129668253Y-72363599D01*
X129651777Y-72381777D01*
X129633599Y-72398253D01*
X129613893Y-72412868D01*
X129592850Y-72425480D01*
X129570671Y-72435970D01*
X129547572Y-72444235D01*
X129523773Y-72450196D01*
X129499505Y-72453796D01*
X129475001Y-72455000D01*
X128824999Y-72455000D01*
X128800495Y-72453796D01*
X128776227Y-72450196D01*
X128752428Y-72444235D01*
X128729329Y-72435970D01*
X128707150Y-72425480D01*
X128686107Y-72412868D01*
X128666401Y-72398253D01*
X128648223Y-72381777D01*
X128631747Y-72363599D01*
X128617132Y-72343893D01*
X128604520Y-72322850D01*
X128594030Y-72300671D01*
X128585765Y-72277572D01*
X128579804Y-72253773D01*
X128576204Y-72229505D01*
X128575000Y-72205001D01*
X128575000Y-71304999D01*
X128576204Y-71280495D01*
X128579804Y-71256227D01*
X128585765Y-71232428D01*
X128594030Y-71209329D01*
X128604520Y-71187150D01*
X128617132Y-71166107D01*
X128631747Y-71146401D01*
X128648223Y-71128223D01*
X128666401Y-71111747D01*
X128686107Y-71097132D01*
X128707150Y-71084520D01*
X128729329Y-71074030D01*
X128752428Y-71065765D01*
X128776227Y-71059804D01*
X128800495Y-71056204D01*
X128824999Y-71055000D01*
X129475001Y-71055000D01*
X129499505Y-71056204D01*
G37*
G04 #@! TD.AperFunction*
G04 #@! TA.AperFunction,SMDPad,CuDef*
G36*
X131549505Y-71056204D02*
G01*
X131573773Y-71059804D01*
X131597572Y-71065765D01*
X131620671Y-71074030D01*
X131642850Y-71084520D01*
X131663893Y-71097132D01*
X131683599Y-71111747D01*
X131701777Y-71128223D01*
X131718253Y-71146401D01*
X131732868Y-71166107D01*
X131745480Y-71187150D01*
X131755970Y-71209329D01*
X131764235Y-71232428D01*
X131770196Y-71256227D01*
X131773796Y-71280495D01*
X131775000Y-71304999D01*
X131775000Y-72205001D01*
X131773796Y-72229505D01*
X131770196Y-72253773D01*
X131764235Y-72277572D01*
X131755970Y-72300671D01*
X131745480Y-72322850D01*
X131732868Y-72343893D01*
X131718253Y-72363599D01*
X131701777Y-72381777D01*
X131683599Y-72398253D01*
X131663893Y-72412868D01*
X131642850Y-72425480D01*
X131620671Y-72435970D01*
X131597572Y-72444235D01*
X131573773Y-72450196D01*
X131549505Y-72453796D01*
X131525001Y-72455000D01*
X130874999Y-72455000D01*
X130850495Y-72453796D01*
X130826227Y-72450196D01*
X130802428Y-72444235D01*
X130779329Y-72435970D01*
X130757150Y-72425480D01*
X130736107Y-72412868D01*
X130716401Y-72398253D01*
X130698223Y-72381777D01*
X130681747Y-72363599D01*
X130667132Y-72343893D01*
X130654520Y-72322850D01*
X130644030Y-72300671D01*
X130635765Y-72277572D01*
X130629804Y-72253773D01*
X130626204Y-72229505D01*
X130625000Y-72205001D01*
X130625000Y-71304999D01*
X130626204Y-71280495D01*
X130629804Y-71256227D01*
X130635765Y-71232428D01*
X130644030Y-71209329D01*
X130654520Y-71187150D01*
X130667132Y-71166107D01*
X130681747Y-71146401D01*
X130698223Y-71128223D01*
X130716401Y-71111747D01*
X130736107Y-71097132D01*
X130757150Y-71084520D01*
X130779329Y-71074030D01*
X130802428Y-71065765D01*
X130826227Y-71059804D01*
X130850495Y-71056204D01*
X130874999Y-71055000D01*
X131525001Y-71055000D01*
X131549505Y-71056204D01*
G37*
G04 #@! TD.AperFunction*
G04 #@! TA.AperFunction,SMDPad,CuDef*
G36*
X128129505Y-62801204D02*
G01*
X128153773Y-62804804D01*
X128177572Y-62810765D01*
X128200671Y-62819030D01*
X128222850Y-62829520D01*
X128243893Y-62842132D01*
X128263599Y-62856747D01*
X128281777Y-62873223D01*
X128298253Y-62891401D01*
X128312868Y-62911107D01*
X128325480Y-62932150D01*
X128335970Y-62954329D01*
X128344235Y-62977428D01*
X128350196Y-63001227D01*
X128353796Y-63025495D01*
X128355000Y-63049999D01*
X128355000Y-63950001D01*
X128353796Y-63974505D01*
X128350196Y-63998773D01*
X128344235Y-64022572D01*
X128335970Y-64045671D01*
X128325480Y-64067850D01*
X128312868Y-64088893D01*
X128298253Y-64108599D01*
X128281777Y-64126777D01*
X128263599Y-64143253D01*
X128243893Y-64157868D01*
X128222850Y-64170480D01*
X128200671Y-64180970D01*
X128177572Y-64189235D01*
X128153773Y-64195196D01*
X128129505Y-64198796D01*
X128105001Y-64200000D01*
X127454999Y-64200000D01*
X127430495Y-64198796D01*
X127406227Y-64195196D01*
X127382428Y-64189235D01*
X127359329Y-64180970D01*
X127337150Y-64170480D01*
X127316107Y-64157868D01*
X127296401Y-64143253D01*
X127278223Y-64126777D01*
X127261747Y-64108599D01*
X127247132Y-64088893D01*
X127234520Y-64067850D01*
X127224030Y-64045671D01*
X127215765Y-64022572D01*
X127209804Y-63998773D01*
X127206204Y-63974505D01*
X127205000Y-63950001D01*
X127205000Y-63049999D01*
X127206204Y-63025495D01*
X127209804Y-63001227D01*
X127215765Y-62977428D01*
X127224030Y-62954329D01*
X127234520Y-62932150D01*
X127247132Y-62911107D01*
X127261747Y-62891401D01*
X127278223Y-62873223D01*
X127296401Y-62856747D01*
X127316107Y-62842132D01*
X127337150Y-62829520D01*
X127359329Y-62819030D01*
X127382428Y-62810765D01*
X127406227Y-62804804D01*
X127430495Y-62801204D01*
X127454999Y-62800000D01*
X128105001Y-62800000D01*
X128129505Y-62801204D01*
G37*
G04 #@! TD.AperFunction*
G04 #@! TA.AperFunction,SMDPad,CuDef*
G36*
X126079505Y-62801204D02*
G01*
X126103773Y-62804804D01*
X126127572Y-62810765D01*
X126150671Y-62819030D01*
X126172850Y-62829520D01*
X126193893Y-62842132D01*
X126213599Y-62856747D01*
X126231777Y-62873223D01*
X126248253Y-62891401D01*
X126262868Y-62911107D01*
X126275480Y-62932150D01*
X126285970Y-62954329D01*
X126294235Y-62977428D01*
X126300196Y-63001227D01*
X126303796Y-63025495D01*
X126305000Y-63049999D01*
X126305000Y-63950001D01*
X126303796Y-63974505D01*
X126300196Y-63998773D01*
X126294235Y-64022572D01*
X126285970Y-64045671D01*
X126275480Y-64067850D01*
X126262868Y-64088893D01*
X126248253Y-64108599D01*
X126231777Y-64126777D01*
X126213599Y-64143253D01*
X126193893Y-64157868D01*
X126172850Y-64170480D01*
X126150671Y-64180970D01*
X126127572Y-64189235D01*
X126103773Y-64195196D01*
X126079505Y-64198796D01*
X126055001Y-64200000D01*
X125404999Y-64200000D01*
X125380495Y-64198796D01*
X125356227Y-64195196D01*
X125332428Y-64189235D01*
X125309329Y-64180970D01*
X125287150Y-64170480D01*
X125266107Y-64157868D01*
X125246401Y-64143253D01*
X125228223Y-64126777D01*
X125211747Y-64108599D01*
X125197132Y-64088893D01*
X125184520Y-64067850D01*
X125174030Y-64045671D01*
X125165765Y-64022572D01*
X125159804Y-63998773D01*
X125156204Y-63974505D01*
X125155000Y-63950001D01*
X125155000Y-63049999D01*
X125156204Y-63025495D01*
X125159804Y-63001227D01*
X125165765Y-62977428D01*
X125174030Y-62954329D01*
X125184520Y-62932150D01*
X125197132Y-62911107D01*
X125211747Y-62891401D01*
X125228223Y-62873223D01*
X125246401Y-62856747D01*
X125266107Y-62842132D01*
X125287150Y-62829520D01*
X125309329Y-62819030D01*
X125332428Y-62810765D01*
X125356227Y-62804804D01*
X125380495Y-62801204D01*
X125404999Y-62800000D01*
X126055001Y-62800000D01*
X126079505Y-62801204D01*
G37*
G04 #@! TD.AperFunction*
D11*
X128270000Y-59690000D03*
X130810000Y-59690000D03*
D12*
X125730000Y-59690000D03*
D13*
X121285000Y-81280000D03*
X135890000Y-81280000D03*
D14*
X131810000Y-68260000D03*
X131810000Y-66360000D03*
X129810000Y-67310000D03*
G04 #@! TA.AperFunction,SMDPad,CuDef*
D10*
G36*
X135269504Y-69991204D02*
G01*
X135293773Y-69994804D01*
X135317571Y-70000765D01*
X135340671Y-70009030D01*
X135362849Y-70019520D01*
X135383893Y-70032133D01*
X135403598Y-70046747D01*
X135421777Y-70063223D01*
X135438253Y-70081402D01*
X135452867Y-70101107D01*
X135465480Y-70122151D01*
X135475970Y-70144329D01*
X135484235Y-70167429D01*
X135490196Y-70191227D01*
X135493796Y-70215496D01*
X135495000Y-70240000D01*
X135495000Y-71165000D01*
X135493796Y-71189504D01*
X135490196Y-71213773D01*
X135484235Y-71237571D01*
X135475970Y-71260671D01*
X135465480Y-71282849D01*
X135452867Y-71303893D01*
X135438253Y-71323598D01*
X135421777Y-71341777D01*
X135403598Y-71358253D01*
X135383893Y-71372867D01*
X135362849Y-71385480D01*
X135340671Y-71395970D01*
X135317571Y-71404235D01*
X135293773Y-71410196D01*
X135269504Y-71413796D01*
X135245000Y-71415000D01*
X133995000Y-71415000D01*
X133970496Y-71413796D01*
X133946227Y-71410196D01*
X133922429Y-71404235D01*
X133899329Y-71395970D01*
X133877151Y-71385480D01*
X133856107Y-71372867D01*
X133836402Y-71358253D01*
X133818223Y-71341777D01*
X133801747Y-71323598D01*
X133787133Y-71303893D01*
X133774520Y-71282849D01*
X133764030Y-71260671D01*
X133755765Y-71237571D01*
X133749804Y-71213773D01*
X133746204Y-71189504D01*
X133745000Y-71165000D01*
X133745000Y-70240000D01*
X133746204Y-70215496D01*
X133749804Y-70191227D01*
X133755765Y-70167429D01*
X133764030Y-70144329D01*
X133774520Y-70122151D01*
X133787133Y-70101107D01*
X133801747Y-70081402D01*
X133818223Y-70063223D01*
X133836402Y-70046747D01*
X133856107Y-70032133D01*
X133877151Y-70019520D01*
X133899329Y-70009030D01*
X133922429Y-70000765D01*
X133946227Y-69994804D01*
X133970496Y-69991204D01*
X133995000Y-69990000D01*
X135245000Y-69990000D01*
X135269504Y-69991204D01*
G37*
G04 #@! TD.AperFunction*
G04 #@! TA.AperFunction,SMDPad,CuDef*
G36*
X135269504Y-67016204D02*
G01*
X135293773Y-67019804D01*
X135317571Y-67025765D01*
X135340671Y-67034030D01*
X135362849Y-67044520D01*
X135383893Y-67057133D01*
X135403598Y-67071747D01*
X135421777Y-67088223D01*
X135438253Y-67106402D01*
X135452867Y-67126107D01*
X135465480Y-67147151D01*
X135475970Y-67169329D01*
X135484235Y-67192429D01*
X135490196Y-67216227D01*
X135493796Y-67240496D01*
X135495000Y-67265000D01*
X135495000Y-68190000D01*
X135493796Y-68214504D01*
X135490196Y-68238773D01*
X135484235Y-68262571D01*
X135475970Y-68285671D01*
X135465480Y-68307849D01*
X135452867Y-68328893D01*
X135438253Y-68348598D01*
X135421777Y-68366777D01*
X135403598Y-68383253D01*
X135383893Y-68397867D01*
X135362849Y-68410480D01*
X135340671Y-68420970D01*
X135317571Y-68429235D01*
X135293773Y-68435196D01*
X135269504Y-68438796D01*
X135245000Y-68440000D01*
X133995000Y-68440000D01*
X133970496Y-68438796D01*
X133946227Y-68435196D01*
X133922429Y-68429235D01*
X133899329Y-68420970D01*
X133877151Y-68410480D01*
X133856107Y-68397867D01*
X133836402Y-68383253D01*
X133818223Y-68366777D01*
X133801747Y-68348598D01*
X133787133Y-68328893D01*
X133774520Y-68307849D01*
X133764030Y-68285671D01*
X133755765Y-68262571D01*
X133749804Y-68238773D01*
X133746204Y-68214504D01*
X133745000Y-68190000D01*
X133745000Y-67265000D01*
X133746204Y-67240496D01*
X133749804Y-67216227D01*
X133755765Y-67192429D01*
X133764030Y-67169329D01*
X133774520Y-67147151D01*
X133787133Y-67126107D01*
X133801747Y-67106402D01*
X133818223Y-67088223D01*
X133836402Y-67071747D01*
X133856107Y-67057133D01*
X133877151Y-67044520D01*
X133899329Y-67034030D01*
X133922429Y-67025765D01*
X133946227Y-67019804D01*
X133970496Y-67016204D01*
X133995000Y-67015000D01*
X135245000Y-67015000D01*
X135269504Y-67016204D01*
G37*
G04 #@! TD.AperFunction*
D15*
X121920000Y-71755000D03*
X121920000Y-74295000D03*
X121920000Y-76835000D03*
G04 #@! TA.AperFunction,SMDPad,CuDef*
D10*
G36*
X128434703Y-74655722D02*
G01*
X128449264Y-74657882D01*
X128463543Y-74661459D01*
X128477403Y-74666418D01*
X128490710Y-74672712D01*
X128503336Y-74680280D01*
X128515159Y-74689048D01*
X128526066Y-74698934D01*
X128535952Y-74709841D01*
X128544720Y-74721664D01*
X128552288Y-74734290D01*
X128558582Y-74747597D01*
X128563541Y-74761457D01*
X128567118Y-74775736D01*
X128569278Y-74790297D01*
X128570000Y-74805000D01*
X128570000Y-76255000D01*
X128569278Y-76269703D01*
X128567118Y-76284264D01*
X128563541Y-76298543D01*
X128558582Y-76312403D01*
X128552288Y-76325710D01*
X128544720Y-76338336D01*
X128535952Y-76350159D01*
X128526066Y-76361066D01*
X128515159Y-76370952D01*
X128503336Y-76379720D01*
X128490710Y-76387288D01*
X128477403Y-76393582D01*
X128463543Y-76398541D01*
X128449264Y-76402118D01*
X128434703Y-76404278D01*
X128420000Y-76405000D01*
X128120000Y-76405000D01*
X128105297Y-76404278D01*
X128090736Y-76402118D01*
X128076457Y-76398541D01*
X128062597Y-76393582D01*
X128049290Y-76387288D01*
X128036664Y-76379720D01*
X128024841Y-76370952D01*
X128013934Y-76361066D01*
X128004048Y-76350159D01*
X127995280Y-76338336D01*
X127987712Y-76325710D01*
X127981418Y-76312403D01*
X127976459Y-76298543D01*
X127972882Y-76284264D01*
X127970722Y-76269703D01*
X127970000Y-76255000D01*
X127970000Y-74805000D01*
X127970722Y-74790297D01*
X127972882Y-74775736D01*
X127976459Y-74761457D01*
X127981418Y-74747597D01*
X127987712Y-74734290D01*
X127995280Y-74721664D01*
X128004048Y-74709841D01*
X128013934Y-74698934D01*
X128024841Y-74689048D01*
X128036664Y-74680280D01*
X128049290Y-74672712D01*
X128062597Y-74666418D01*
X128076457Y-74661459D01*
X128090736Y-74657882D01*
X128105297Y-74655722D01*
X128120000Y-74655000D01*
X128420000Y-74655000D01*
X128434703Y-74655722D01*
G37*
G04 #@! TD.AperFunction*
G04 #@! TA.AperFunction,SMDPad,CuDef*
G36*
X129704703Y-74655722D02*
G01*
X129719264Y-74657882D01*
X129733543Y-74661459D01*
X129747403Y-74666418D01*
X129760710Y-74672712D01*
X129773336Y-74680280D01*
X129785159Y-74689048D01*
X129796066Y-74698934D01*
X129805952Y-74709841D01*
X129814720Y-74721664D01*
X129822288Y-74734290D01*
X129828582Y-74747597D01*
X129833541Y-74761457D01*
X129837118Y-74775736D01*
X129839278Y-74790297D01*
X129840000Y-74805000D01*
X129840000Y-76255000D01*
X129839278Y-76269703D01*
X129837118Y-76284264D01*
X129833541Y-76298543D01*
X129828582Y-76312403D01*
X129822288Y-76325710D01*
X129814720Y-76338336D01*
X129805952Y-76350159D01*
X129796066Y-76361066D01*
X129785159Y-76370952D01*
X129773336Y-76379720D01*
X129760710Y-76387288D01*
X129747403Y-76393582D01*
X129733543Y-76398541D01*
X129719264Y-76402118D01*
X129704703Y-76404278D01*
X129690000Y-76405000D01*
X129390000Y-76405000D01*
X129375297Y-76404278D01*
X129360736Y-76402118D01*
X129346457Y-76398541D01*
X129332597Y-76393582D01*
X129319290Y-76387288D01*
X129306664Y-76379720D01*
X129294841Y-76370952D01*
X129283934Y-76361066D01*
X129274048Y-76350159D01*
X129265280Y-76338336D01*
X129257712Y-76325710D01*
X129251418Y-76312403D01*
X129246459Y-76298543D01*
X129242882Y-76284264D01*
X129240722Y-76269703D01*
X129240000Y-76255000D01*
X129240000Y-74805000D01*
X129240722Y-74790297D01*
X129242882Y-74775736D01*
X129246459Y-74761457D01*
X129251418Y-74747597D01*
X129257712Y-74734290D01*
X129265280Y-74721664D01*
X129274048Y-74709841D01*
X129283934Y-74698934D01*
X129294841Y-74689048D01*
X129306664Y-74680280D01*
X129319290Y-74672712D01*
X129332597Y-74666418D01*
X129346457Y-74661459D01*
X129360736Y-74657882D01*
X129375297Y-74655722D01*
X129390000Y-74655000D01*
X129690000Y-74655000D01*
X129704703Y-74655722D01*
G37*
G04 #@! TD.AperFunction*
G04 #@! TA.AperFunction,SMDPad,CuDef*
G36*
X130974703Y-74655722D02*
G01*
X130989264Y-74657882D01*
X131003543Y-74661459D01*
X131017403Y-74666418D01*
X131030710Y-74672712D01*
X131043336Y-74680280D01*
X131055159Y-74689048D01*
X131066066Y-74698934D01*
X131075952Y-74709841D01*
X131084720Y-74721664D01*
X131092288Y-74734290D01*
X131098582Y-74747597D01*
X131103541Y-74761457D01*
X131107118Y-74775736D01*
X131109278Y-74790297D01*
X131110000Y-74805000D01*
X131110000Y-76255000D01*
X131109278Y-76269703D01*
X131107118Y-76284264D01*
X131103541Y-76298543D01*
X131098582Y-76312403D01*
X131092288Y-76325710D01*
X131084720Y-76338336D01*
X131075952Y-76350159D01*
X131066066Y-76361066D01*
X131055159Y-76370952D01*
X131043336Y-76379720D01*
X131030710Y-76387288D01*
X131017403Y-76393582D01*
X131003543Y-76398541D01*
X130989264Y-76402118D01*
X130974703Y-76404278D01*
X130960000Y-76405000D01*
X130660000Y-76405000D01*
X130645297Y-76404278D01*
X130630736Y-76402118D01*
X130616457Y-76398541D01*
X130602597Y-76393582D01*
X130589290Y-76387288D01*
X130576664Y-76379720D01*
X130564841Y-76370952D01*
X130553934Y-76361066D01*
X130544048Y-76350159D01*
X130535280Y-76338336D01*
X130527712Y-76325710D01*
X130521418Y-76312403D01*
X130516459Y-76298543D01*
X130512882Y-76284264D01*
X130510722Y-76269703D01*
X130510000Y-76255000D01*
X130510000Y-74805000D01*
X130510722Y-74790297D01*
X130512882Y-74775736D01*
X130516459Y-74761457D01*
X130521418Y-74747597D01*
X130527712Y-74734290D01*
X130535280Y-74721664D01*
X130544048Y-74709841D01*
X130553934Y-74698934D01*
X130564841Y-74689048D01*
X130576664Y-74680280D01*
X130589290Y-74672712D01*
X130602597Y-74666418D01*
X130616457Y-74661459D01*
X130630736Y-74657882D01*
X130645297Y-74655722D01*
X130660000Y-74655000D01*
X130960000Y-74655000D01*
X130974703Y-74655722D01*
G37*
G04 #@! TD.AperFunction*
G04 #@! TA.AperFunction,SMDPad,CuDef*
G36*
X132244703Y-74655722D02*
G01*
X132259264Y-74657882D01*
X132273543Y-74661459D01*
X132287403Y-74666418D01*
X132300710Y-74672712D01*
X132313336Y-74680280D01*
X132325159Y-74689048D01*
X132336066Y-74698934D01*
X132345952Y-74709841D01*
X132354720Y-74721664D01*
X132362288Y-74734290D01*
X132368582Y-74747597D01*
X132373541Y-74761457D01*
X132377118Y-74775736D01*
X132379278Y-74790297D01*
X132380000Y-74805000D01*
X132380000Y-76255000D01*
X132379278Y-76269703D01*
X132377118Y-76284264D01*
X132373541Y-76298543D01*
X132368582Y-76312403D01*
X132362288Y-76325710D01*
X132354720Y-76338336D01*
X132345952Y-76350159D01*
X132336066Y-76361066D01*
X132325159Y-76370952D01*
X132313336Y-76379720D01*
X132300710Y-76387288D01*
X132287403Y-76393582D01*
X132273543Y-76398541D01*
X132259264Y-76402118D01*
X132244703Y-76404278D01*
X132230000Y-76405000D01*
X131930000Y-76405000D01*
X131915297Y-76404278D01*
X131900736Y-76402118D01*
X131886457Y-76398541D01*
X131872597Y-76393582D01*
X131859290Y-76387288D01*
X131846664Y-76379720D01*
X131834841Y-76370952D01*
X131823934Y-76361066D01*
X131814048Y-76350159D01*
X131805280Y-76338336D01*
X131797712Y-76325710D01*
X131791418Y-76312403D01*
X131786459Y-76298543D01*
X131782882Y-76284264D01*
X131780722Y-76269703D01*
X131780000Y-76255000D01*
X131780000Y-74805000D01*
X131780722Y-74790297D01*
X131782882Y-74775736D01*
X131786459Y-74761457D01*
X131791418Y-74747597D01*
X131797712Y-74734290D01*
X131805280Y-74721664D01*
X131814048Y-74709841D01*
X131823934Y-74698934D01*
X131834841Y-74689048D01*
X131846664Y-74680280D01*
X131859290Y-74672712D01*
X131872597Y-74666418D01*
X131886457Y-74661459D01*
X131900736Y-74657882D01*
X131915297Y-74655722D01*
X131930000Y-74655000D01*
X132230000Y-74655000D01*
X132244703Y-74655722D01*
G37*
G04 #@! TD.AperFunction*
G04 #@! TA.AperFunction,SMDPad,CuDef*
G36*
X132244703Y-79805722D02*
G01*
X132259264Y-79807882D01*
X132273543Y-79811459D01*
X132287403Y-79816418D01*
X132300710Y-79822712D01*
X132313336Y-79830280D01*
X132325159Y-79839048D01*
X132336066Y-79848934D01*
X132345952Y-79859841D01*
X132354720Y-79871664D01*
X132362288Y-79884290D01*
X132368582Y-79897597D01*
X132373541Y-79911457D01*
X132377118Y-79925736D01*
X132379278Y-79940297D01*
X132380000Y-79955000D01*
X132380000Y-81405000D01*
X132379278Y-81419703D01*
X132377118Y-81434264D01*
X132373541Y-81448543D01*
X132368582Y-81462403D01*
X132362288Y-81475710D01*
X132354720Y-81488336D01*
X132345952Y-81500159D01*
X132336066Y-81511066D01*
X132325159Y-81520952D01*
X132313336Y-81529720D01*
X132300710Y-81537288D01*
X132287403Y-81543582D01*
X132273543Y-81548541D01*
X132259264Y-81552118D01*
X132244703Y-81554278D01*
X132230000Y-81555000D01*
X131930000Y-81555000D01*
X131915297Y-81554278D01*
X131900736Y-81552118D01*
X131886457Y-81548541D01*
X131872597Y-81543582D01*
X131859290Y-81537288D01*
X131846664Y-81529720D01*
X131834841Y-81520952D01*
X131823934Y-81511066D01*
X131814048Y-81500159D01*
X131805280Y-81488336D01*
X131797712Y-81475710D01*
X131791418Y-81462403D01*
X131786459Y-81448543D01*
X131782882Y-81434264D01*
X131780722Y-81419703D01*
X131780000Y-81405000D01*
X131780000Y-79955000D01*
X131780722Y-79940297D01*
X131782882Y-79925736D01*
X131786459Y-79911457D01*
X131791418Y-79897597D01*
X131797712Y-79884290D01*
X131805280Y-79871664D01*
X131814048Y-79859841D01*
X131823934Y-79848934D01*
X131834841Y-79839048D01*
X131846664Y-79830280D01*
X131859290Y-79822712D01*
X131872597Y-79816418D01*
X131886457Y-79811459D01*
X131900736Y-79807882D01*
X131915297Y-79805722D01*
X131930000Y-79805000D01*
X132230000Y-79805000D01*
X132244703Y-79805722D01*
G37*
G04 #@! TD.AperFunction*
G04 #@! TA.AperFunction,SMDPad,CuDef*
G36*
X130974703Y-79805722D02*
G01*
X130989264Y-79807882D01*
X131003543Y-79811459D01*
X131017403Y-79816418D01*
X131030710Y-79822712D01*
X131043336Y-79830280D01*
X131055159Y-79839048D01*
X131066066Y-79848934D01*
X131075952Y-79859841D01*
X131084720Y-79871664D01*
X131092288Y-79884290D01*
X131098582Y-79897597D01*
X131103541Y-79911457D01*
X131107118Y-79925736D01*
X131109278Y-79940297D01*
X131110000Y-79955000D01*
X131110000Y-81405000D01*
X131109278Y-81419703D01*
X131107118Y-81434264D01*
X131103541Y-81448543D01*
X131098582Y-81462403D01*
X131092288Y-81475710D01*
X131084720Y-81488336D01*
X131075952Y-81500159D01*
X131066066Y-81511066D01*
X131055159Y-81520952D01*
X131043336Y-81529720D01*
X131030710Y-81537288D01*
X131017403Y-81543582D01*
X131003543Y-81548541D01*
X130989264Y-81552118D01*
X130974703Y-81554278D01*
X130960000Y-81555000D01*
X130660000Y-81555000D01*
X130645297Y-81554278D01*
X130630736Y-81552118D01*
X130616457Y-81548541D01*
X130602597Y-81543582D01*
X130589290Y-81537288D01*
X130576664Y-81529720D01*
X130564841Y-81520952D01*
X130553934Y-81511066D01*
X130544048Y-81500159D01*
X130535280Y-81488336D01*
X130527712Y-81475710D01*
X130521418Y-81462403D01*
X130516459Y-81448543D01*
X130512882Y-81434264D01*
X130510722Y-81419703D01*
X130510000Y-81405000D01*
X130510000Y-79955000D01*
X130510722Y-79940297D01*
X130512882Y-79925736D01*
X130516459Y-79911457D01*
X130521418Y-79897597D01*
X130527712Y-79884290D01*
X130535280Y-79871664D01*
X130544048Y-79859841D01*
X130553934Y-79848934D01*
X130564841Y-79839048D01*
X130576664Y-79830280D01*
X130589290Y-79822712D01*
X130602597Y-79816418D01*
X130616457Y-79811459D01*
X130630736Y-79807882D01*
X130645297Y-79805722D01*
X130660000Y-79805000D01*
X130960000Y-79805000D01*
X130974703Y-79805722D01*
G37*
G04 #@! TD.AperFunction*
G04 #@! TA.AperFunction,SMDPad,CuDef*
G36*
X129704703Y-79805722D02*
G01*
X129719264Y-79807882D01*
X129733543Y-79811459D01*
X129747403Y-79816418D01*
X129760710Y-79822712D01*
X129773336Y-79830280D01*
X129785159Y-79839048D01*
X129796066Y-79848934D01*
X129805952Y-79859841D01*
X129814720Y-79871664D01*
X129822288Y-79884290D01*
X129828582Y-79897597D01*
X129833541Y-79911457D01*
X129837118Y-79925736D01*
X129839278Y-79940297D01*
X129840000Y-79955000D01*
X129840000Y-81405000D01*
X129839278Y-81419703D01*
X129837118Y-81434264D01*
X129833541Y-81448543D01*
X129828582Y-81462403D01*
X129822288Y-81475710D01*
X129814720Y-81488336D01*
X129805952Y-81500159D01*
X129796066Y-81511066D01*
X129785159Y-81520952D01*
X129773336Y-81529720D01*
X129760710Y-81537288D01*
X129747403Y-81543582D01*
X129733543Y-81548541D01*
X129719264Y-81552118D01*
X129704703Y-81554278D01*
X129690000Y-81555000D01*
X129390000Y-81555000D01*
X129375297Y-81554278D01*
X129360736Y-81552118D01*
X129346457Y-81548541D01*
X129332597Y-81543582D01*
X129319290Y-81537288D01*
X129306664Y-81529720D01*
X129294841Y-81520952D01*
X129283934Y-81511066D01*
X129274048Y-81500159D01*
X129265280Y-81488336D01*
X129257712Y-81475710D01*
X129251418Y-81462403D01*
X129246459Y-81448543D01*
X129242882Y-81434264D01*
X129240722Y-81419703D01*
X129240000Y-81405000D01*
X129240000Y-79955000D01*
X129240722Y-79940297D01*
X129242882Y-79925736D01*
X129246459Y-79911457D01*
X129251418Y-79897597D01*
X129257712Y-79884290D01*
X129265280Y-79871664D01*
X129274048Y-79859841D01*
X129283934Y-79848934D01*
X129294841Y-79839048D01*
X129306664Y-79830280D01*
X129319290Y-79822712D01*
X129332597Y-79816418D01*
X129346457Y-79811459D01*
X129360736Y-79807882D01*
X129375297Y-79805722D01*
X129390000Y-79805000D01*
X129690000Y-79805000D01*
X129704703Y-79805722D01*
G37*
G04 #@! TD.AperFunction*
G04 #@! TA.AperFunction,SMDPad,CuDef*
G36*
X128434703Y-79805722D02*
G01*
X128449264Y-79807882D01*
X128463543Y-79811459D01*
X128477403Y-79816418D01*
X128490710Y-79822712D01*
X128503336Y-79830280D01*
X128515159Y-79839048D01*
X128526066Y-79848934D01*
X128535952Y-79859841D01*
X128544720Y-79871664D01*
X128552288Y-79884290D01*
X128558582Y-79897597D01*
X128563541Y-79911457D01*
X128567118Y-79925736D01*
X128569278Y-79940297D01*
X128570000Y-79955000D01*
X128570000Y-81405000D01*
X128569278Y-81419703D01*
X128567118Y-81434264D01*
X128563541Y-81448543D01*
X128558582Y-81462403D01*
X128552288Y-81475710D01*
X128544720Y-81488336D01*
X128535952Y-81500159D01*
X128526066Y-81511066D01*
X128515159Y-81520952D01*
X128503336Y-81529720D01*
X128490710Y-81537288D01*
X128477403Y-81543582D01*
X128463543Y-81548541D01*
X128449264Y-81552118D01*
X128434703Y-81554278D01*
X128420000Y-81555000D01*
X128120000Y-81555000D01*
X128105297Y-81554278D01*
X128090736Y-81552118D01*
X128076457Y-81548541D01*
X128062597Y-81543582D01*
X128049290Y-81537288D01*
X128036664Y-81529720D01*
X128024841Y-81520952D01*
X128013934Y-81511066D01*
X128004048Y-81500159D01*
X127995280Y-81488336D01*
X127987712Y-81475710D01*
X127981418Y-81462403D01*
X127976459Y-81448543D01*
X127972882Y-81434264D01*
X127970722Y-81419703D01*
X127970000Y-81405000D01*
X127970000Y-79955000D01*
X127970722Y-79940297D01*
X127972882Y-79925736D01*
X127976459Y-79911457D01*
X127981418Y-79897597D01*
X127987712Y-79884290D01*
X127995280Y-79871664D01*
X128004048Y-79859841D01*
X128013934Y-79848934D01*
X128024841Y-79839048D01*
X128036664Y-79830280D01*
X128049290Y-79822712D01*
X128062597Y-79816418D01*
X128076457Y-79811459D01*
X128090736Y-79807882D01*
X128105297Y-79805722D01*
X128120000Y-79805000D01*
X128420000Y-79805000D01*
X128434703Y-79805722D01*
G37*
G04 #@! TD.AperFunction*
D16*
X126746000Y-74930000D03*
X123190000Y-77978000D03*
D17*
X123952000Y-57404000D03*
X132588000Y-57404000D03*
X132588000Y-83058000D03*
X126746000Y-83312000D03*
X137160000Y-64516000D03*
X137668000Y-67310000D03*
X137668000Y-70612000D03*
X137668000Y-74422000D03*
X137668000Y-76962000D03*
X137668000Y-79248000D03*
X135382000Y-76962000D03*
X119126000Y-67310000D03*
X119126000Y-70612000D03*
X118618000Y-74676000D03*
X118618000Y-77724000D03*
X123190000Y-68580000D03*
X129540000Y-63373000D03*
X128651000Y-69723000D03*
X130937000Y-73660000D03*
X130937000Y-77724000D03*
X127508000Y-68580000D03*
X123190000Y-75819000D03*
D18*
X126746000Y-71755000D02*
X129150000Y-71755000D01*
D19*
X125603000Y-71755000D02*
X129150000Y-71755000D01*
X124333000Y-73025000D02*
X125603000Y-71755000D01*
X120650000Y-81280000D02*
X120650000Y-80007208D01*
X120650000Y-80007208D02*
X120396000Y-79753208D01*
X121031000Y-73025000D02*
X124333000Y-73025000D01*
X120396000Y-79753208D02*
X120396000Y-73660000D01*
X120396000Y-73660000D02*
X121031000Y-73025000D01*
X129150000Y-71755000D02*
X129150000Y-73143000D01*
X129540000Y-73533000D02*
X129540000Y-75530000D01*
X129150000Y-73143000D02*
X129540000Y-73533000D01*
X128270000Y-63010000D02*
X127780000Y-63500000D01*
X128270000Y-59690000D02*
X128270000Y-63010000D01*
X131200000Y-73397000D02*
X131200000Y-71755000D01*
X130937000Y-73660000D02*
X131200000Y-73397000D01*
X132080000Y-78867000D02*
X131336999Y-78123999D01*
X132080000Y-80680000D02*
X132080000Y-78867000D01*
X131336999Y-78123999D02*
X130937000Y-77724000D01*
X131200000Y-71055000D02*
X130556000Y-70411000D01*
X131200000Y-71755000D02*
X131200000Y-71055000D01*
X130556000Y-70411000D02*
X130556000Y-68834000D01*
D20*
X130556000Y-68834000D02*
X130810000Y-68580000D01*
X130810000Y-68580000D02*
X130810000Y-66675000D01*
X130810000Y-66675000D02*
X130429000Y-66294000D01*
D19*
X128355000Y-63500000D02*
X127780000Y-63500000D01*
X130429000Y-65574000D02*
X128355000Y-63500000D01*
X130429000Y-66294000D02*
X130429000Y-65574000D01*
X133350000Y-71755000D02*
X131200000Y-71755000D01*
X134620000Y-70702500D02*
X133567500Y-71755000D01*
X133567500Y-71755000D02*
X133350000Y-71755000D01*
D20*
X130937000Y-77724000D02*
X130175000Y-76962000D01*
X130175000Y-76962000D02*
X127508000Y-76962000D01*
X126746000Y-76200000D02*
X126746000Y-74930000D01*
X127508000Y-76962000D02*
X126746000Y-76200000D01*
D19*
X125730000Y-60690000D02*
X125730000Y-63500000D01*
X125730000Y-59690000D02*
X125730000Y-60690000D01*
X123444000Y-66548000D02*
X124496500Y-66548000D01*
X121920000Y-71755000D02*
X121920000Y-68072000D01*
X121920000Y-68072000D02*
X123444000Y-66548000D01*
X124496500Y-65495500D02*
X124496500Y-66548000D01*
X124841000Y-65151000D02*
X124496500Y-65495500D01*
X124841000Y-63814000D02*
X124841000Y-65151000D01*
X125730000Y-63500000D02*
X125155000Y-63500000D01*
X125155000Y-63500000D02*
X124841000Y-63814000D01*
X130810000Y-59690000D02*
X130810000Y-64135000D01*
X131810000Y-65135000D02*
X131810000Y-66360000D01*
X130810000Y-64135000D02*
X131810000Y-65135000D01*
X134620000Y-67727500D02*
X133567500Y-67727500D01*
X133035000Y-68260000D02*
X131810000Y-68260000D01*
X133567500Y-67727500D02*
X133035000Y-68260000D01*
X130810000Y-75530000D02*
X130810000Y-75076456D01*
X132842000Y-72898000D02*
X132588000Y-73152000D01*
X135128000Y-72898000D02*
X132842000Y-72898000D01*
D18*
X130810000Y-75076456D02*
X132588000Y-73152000D01*
D19*
X135495000Y-67727500D02*
X136398000Y-68630500D01*
X136398000Y-68630500D02*
X136398000Y-71628000D01*
X134620000Y-67727500D02*
X135495000Y-67727500D01*
X136398000Y-71628000D02*
X135128000Y-72898000D01*
X129048000Y-66548000D02*
X129810000Y-67310000D01*
X127471500Y-66548000D02*
X129048000Y-66548000D01*
X127508000Y-66584500D02*
X127471500Y-66548000D01*
X127508000Y-68580000D02*
X127508000Y-66584500D01*
X126111000Y-78740000D02*
X123190000Y-75819000D01*
X126365000Y-78994000D02*
X126111000Y-78740000D01*
X128729000Y-78994000D02*
X126365000Y-78994000D01*
X129540000Y-80680000D02*
X129540000Y-79805000D01*
X129540000Y-79805000D02*
X128729000Y-78994000D01*
X123571000Y-74295000D02*
X121920000Y-74295000D01*
X127000000Y-77724000D02*
X123571000Y-74295000D01*
X130810000Y-80680000D02*
X130810000Y-79629000D01*
X128905000Y-77724000D02*
X127000000Y-77724000D01*
X130810000Y-79629000D02*
X128905000Y-77724000D01*
D21*
G36*
X132690001Y-61754419D02*
G01*
X132692819Y-61783030D01*
X132692753Y-61792456D01*
X132693652Y-61801627D01*
X132724742Y-62097431D01*
X132736771Y-62156028D01*
X132747980Y-62214790D01*
X132750644Y-62223612D01*
X132838598Y-62507743D01*
X132861773Y-62562875D01*
X132884186Y-62618349D01*
X132888513Y-62626486D01*
X133029979Y-62888122D01*
X133063412Y-62937689D01*
X133096183Y-62987768D01*
X133102007Y-62994909D01*
X133291597Y-63224084D01*
X133334015Y-63266206D01*
X133375897Y-63308976D01*
X133382998Y-63314850D01*
X133613492Y-63502836D01*
X133663334Y-63535951D01*
X133712674Y-63569735D01*
X133720781Y-63574118D01*
X133983399Y-63713754D01*
X134038701Y-63736548D01*
X134093684Y-63760114D01*
X134102487Y-63762839D01*
X134387225Y-63848807D01*
X134445910Y-63860427D01*
X134504418Y-63872863D01*
X134513581Y-63873826D01*
X134513583Y-63873826D01*
X134809596Y-63902850D01*
X134809598Y-63902850D01*
X134841581Y-63906000D01*
X138278000Y-63906000D01*
X138278001Y-83668000D01*
X118262000Y-83668000D01*
X118262000Y-73660000D01*
X119506719Y-73660000D01*
X119511001Y-73703479D01*
X119511000Y-79709739D01*
X119506719Y-79753208D01*
X119511000Y-79796677D01*
X119511000Y-79796684D01*
X119523805Y-79926697D01*
X119574411Y-80093520D01*
X119656589Y-80247266D01*
X119765001Y-80379366D01*
X119765000Y-81053405D01*
X119750000Y-81128816D01*
X119750000Y-81431184D01*
X119808989Y-81727743D01*
X119924701Y-82007095D01*
X120092688Y-82258505D01*
X120306495Y-82472312D01*
X120557905Y-82640299D01*
X120837257Y-82756011D01*
X121133816Y-82815000D01*
X121436184Y-82815000D01*
X121732743Y-82756011D01*
X122012095Y-82640299D01*
X122263505Y-82472312D01*
X122477312Y-82258505D01*
X122645299Y-82007095D01*
X122761011Y-81727743D01*
X122820000Y-81431184D01*
X122820000Y-81128816D01*
X122761011Y-80832257D01*
X122645299Y-80552905D01*
X122477312Y-80301495D01*
X122263505Y-80087688D01*
X122012095Y-79919701D01*
X121732743Y-79803989D01*
X121499077Y-79757510D01*
X121471589Y-79666895D01*
X121389411Y-79513149D01*
X121281000Y-79381051D01*
X121281000Y-78036958D01*
X121524761Y-78137928D01*
X121786544Y-78190000D01*
X122053456Y-78190000D01*
X122315239Y-78137928D01*
X122561833Y-78035785D01*
X122783762Y-77887497D01*
X122972497Y-77698762D01*
X123120785Y-77476833D01*
X123222928Y-77230239D01*
X123243954Y-77124533D01*
X125515953Y-79396532D01*
X125515959Y-79396537D01*
X125708466Y-79589044D01*
X125736183Y-79622817D01*
X125870941Y-79733411D01*
X126024687Y-79815589D01*
X126191510Y-79866195D01*
X126321523Y-79879000D01*
X126321533Y-79879000D01*
X126364999Y-79883281D01*
X126408465Y-79879000D01*
X127339414Y-79879000D01*
X127331928Y-79955000D01*
X127331928Y-81405000D01*
X127347071Y-81558745D01*
X127391916Y-81706582D01*
X127464742Y-81842829D01*
X127562749Y-81962251D01*
X127682171Y-82060258D01*
X127818418Y-82133084D01*
X127966255Y-82177929D01*
X128120000Y-82193072D01*
X128420000Y-82193072D01*
X128573745Y-82177929D01*
X128721582Y-82133084D01*
X128857829Y-82060258D01*
X128905000Y-82021546D01*
X128952171Y-82060258D01*
X129088418Y-82133084D01*
X129236255Y-82177929D01*
X129390000Y-82193072D01*
X129690000Y-82193072D01*
X129843745Y-82177929D01*
X129991582Y-82133084D01*
X130127829Y-82060258D01*
X130175000Y-82021546D01*
X130222171Y-82060258D01*
X130358418Y-82133084D01*
X130506255Y-82177929D01*
X130660000Y-82193072D01*
X130960000Y-82193072D01*
X131113745Y-82177929D01*
X131261582Y-82133084D01*
X131395936Y-82061270D01*
X131425506Y-82085537D01*
X131535820Y-82144502D01*
X131655518Y-82180812D01*
X131780000Y-82193072D01*
X131794250Y-82190000D01*
X131953000Y-82031250D01*
X131953000Y-80807000D01*
X132207000Y-80807000D01*
X132207000Y-82031250D01*
X132365750Y-82190000D01*
X132380000Y-82193072D01*
X132504482Y-82180812D01*
X132624180Y-82144502D01*
X132734494Y-82085537D01*
X132831185Y-82006185D01*
X132910537Y-81909494D01*
X132969502Y-81799180D01*
X133005812Y-81679482D01*
X133018072Y-81555000D01*
X133015851Y-81128816D01*
X134355000Y-81128816D01*
X134355000Y-81431184D01*
X134413989Y-81727743D01*
X134529701Y-82007095D01*
X134697688Y-82258505D01*
X134911495Y-82472312D01*
X135162905Y-82640299D01*
X135442257Y-82756011D01*
X135738816Y-82815000D01*
X136041184Y-82815000D01*
X136337743Y-82756011D01*
X136617095Y-82640299D01*
X136868505Y-82472312D01*
X137082312Y-82258505D01*
X137250299Y-82007095D01*
X137366011Y-81727743D01*
X137425000Y-81431184D01*
X137425000Y-81128816D01*
X137366011Y-80832257D01*
X137250299Y-80552905D01*
X137082312Y-80301495D01*
X136868505Y-80087688D01*
X136617095Y-79919701D01*
X136337743Y-79803989D01*
X136041184Y-79745000D01*
X135738816Y-79745000D01*
X135442257Y-79803989D01*
X135162905Y-79919701D01*
X134911495Y-80087688D01*
X134697688Y-80301495D01*
X134529701Y-80552905D01*
X134413989Y-80832257D01*
X134355000Y-81128816D01*
X133015851Y-81128816D01*
X133015000Y-80965750D01*
X132856250Y-80807000D01*
X132207000Y-80807000D01*
X131953000Y-80807000D01*
X131933000Y-80807000D01*
X131933000Y-80553000D01*
X131953000Y-80553000D01*
X131953000Y-79328750D01*
X132207000Y-79328750D01*
X132207000Y-80553000D01*
X132856250Y-80553000D01*
X133015000Y-80394250D01*
X133018072Y-79805000D01*
X133005812Y-79680518D01*
X132969502Y-79560820D01*
X132910537Y-79450506D01*
X132831185Y-79353815D01*
X132734494Y-79274463D01*
X132624180Y-79215498D01*
X132504482Y-79179188D01*
X132380000Y-79166928D01*
X132365750Y-79170000D01*
X132207000Y-79328750D01*
X131953000Y-79328750D01*
X131794250Y-79170000D01*
X131780000Y-79166928D01*
X131655518Y-79179188D01*
X131584566Y-79200711D01*
X131549411Y-79134941D01*
X131535447Y-79117926D01*
X131466532Y-79033953D01*
X131466530Y-79033951D01*
X131438817Y-79000183D01*
X131405049Y-78972470D01*
X129561534Y-77128956D01*
X129533817Y-77095183D01*
X129470320Y-77043072D01*
X129690000Y-77043072D01*
X129843745Y-77027929D01*
X129991582Y-76983084D01*
X130127829Y-76910258D01*
X130175000Y-76871546D01*
X130222171Y-76910258D01*
X130358418Y-76983084D01*
X130506255Y-77027929D01*
X130660000Y-77043072D01*
X130960000Y-77043072D01*
X131113745Y-77027929D01*
X131261582Y-76983084D01*
X131397829Y-76910258D01*
X131445000Y-76871546D01*
X131492171Y-76910258D01*
X131628418Y-76983084D01*
X131776255Y-77027929D01*
X131930000Y-77043072D01*
X132230000Y-77043072D01*
X132383745Y-77027929D01*
X132531582Y-76983084D01*
X132667829Y-76910258D01*
X132787251Y-76812251D01*
X132885258Y-76692829D01*
X132958084Y-76556582D01*
X133002929Y-76408745D01*
X133018072Y-76255000D01*
X133018072Y-74805000D01*
X133002929Y-74651255D01*
X132958084Y-74503418D01*
X132885258Y-74367171D01*
X132787251Y-74247749D01*
X132686639Y-74165179D01*
X132838470Y-74000843D01*
X132928313Y-73973588D01*
X133082059Y-73891410D01*
X133183046Y-73808532D01*
X133208578Y-73783000D01*
X135084531Y-73783000D01*
X135128000Y-73787281D01*
X135171469Y-73783000D01*
X135171477Y-73783000D01*
X135301490Y-73770195D01*
X135468313Y-73719589D01*
X135622059Y-73637411D01*
X135756817Y-73526817D01*
X135784534Y-73493044D01*
X136993049Y-72284530D01*
X137026817Y-72256817D01*
X137137411Y-72122059D01*
X137219589Y-71968313D01*
X137270195Y-71801490D01*
X137283000Y-71671477D01*
X137283000Y-71671467D01*
X137287281Y-71628001D01*
X137283000Y-71584535D01*
X137283000Y-68673969D01*
X137287281Y-68630500D01*
X137283000Y-68587031D01*
X137283000Y-68587023D01*
X137270195Y-68457010D01*
X137219589Y-68290187D01*
X137137411Y-68136441D01*
X137133428Y-68131588D01*
X137054532Y-68035453D01*
X137054530Y-68035451D01*
X137026817Y-68001683D01*
X136993050Y-67973971D01*
X136151534Y-67132456D01*
X136123817Y-67098683D01*
X136116065Y-67092321D01*
X136116008Y-67091746D01*
X136065472Y-66925150D01*
X135983405Y-66771614D01*
X135872962Y-66637038D01*
X135738386Y-66526595D01*
X135584850Y-66444528D01*
X135418254Y-66393992D01*
X135245000Y-66376928D01*
X133995000Y-66376928D01*
X133821746Y-66393992D01*
X133655150Y-66444528D01*
X133501614Y-66526595D01*
X133367038Y-66637038D01*
X133256595Y-66771614D01*
X133174528Y-66925150D01*
X133171303Y-66935781D01*
X133073441Y-66988089D01*
X132938683Y-67098683D01*
X132910966Y-67132456D01*
X132669125Y-67374297D01*
X132614494Y-67329463D01*
X132578082Y-67310000D01*
X132614494Y-67290537D01*
X132711185Y-67211185D01*
X132790537Y-67114494D01*
X132849502Y-67004180D01*
X132885812Y-66884482D01*
X132898072Y-66760000D01*
X132898072Y-65960000D01*
X132885812Y-65835518D01*
X132849502Y-65715820D01*
X132790537Y-65605506D01*
X132711185Y-65508815D01*
X132695000Y-65495532D01*
X132695000Y-65178469D01*
X132699281Y-65135000D01*
X132695000Y-65091531D01*
X132695000Y-65091523D01*
X132682195Y-64961510D01*
X132663674Y-64900454D01*
X132631589Y-64794686D01*
X132549411Y-64640941D01*
X132466532Y-64539953D01*
X132466530Y-64539951D01*
X132438817Y-64506183D01*
X132405050Y-64478471D01*
X131695000Y-63768422D01*
X131695000Y-60763685D01*
X131885799Y-60572886D01*
X132037371Y-60346043D01*
X132141775Y-60093989D01*
X132195000Y-59826411D01*
X132195000Y-59553589D01*
X132141775Y-59286011D01*
X132037371Y-59033957D01*
X131885799Y-58807114D01*
X131692886Y-58614201D01*
X131466043Y-58462629D01*
X131213989Y-58358225D01*
X130946411Y-58305000D01*
X130673589Y-58305000D01*
X130406011Y-58358225D01*
X130153957Y-58462629D01*
X129927114Y-58614201D01*
X129734201Y-58807114D01*
X129582629Y-59033957D01*
X129541489Y-59133279D01*
X129526277Y-59091168D01*
X129465860Y-58978137D01*
X129226993Y-58912612D01*
X128449605Y-59690000D01*
X129226993Y-60467388D01*
X129465860Y-60401863D01*
X129540164Y-60243523D01*
X129582629Y-60346043D01*
X129734201Y-60572886D01*
X129925000Y-60763685D01*
X129925001Y-64091521D01*
X129920719Y-64135000D01*
X129937805Y-64308490D01*
X129988412Y-64475313D01*
X130070590Y-64629059D01*
X130153468Y-64730046D01*
X130153471Y-64730049D01*
X130181184Y-64763817D01*
X130214951Y-64791529D01*
X130921679Y-65498258D01*
X130908815Y-65508815D01*
X130829463Y-65605506D01*
X130770498Y-65715820D01*
X130734188Y-65835518D01*
X130721928Y-65960000D01*
X130721928Y-66471905D01*
X130711185Y-66458815D01*
X130614494Y-66379463D01*
X130504180Y-66320498D01*
X130384482Y-66284188D01*
X130260000Y-66271928D01*
X130023506Y-66271928D01*
X129704534Y-65952956D01*
X129676817Y-65919183D01*
X129542059Y-65808589D01*
X129388313Y-65726411D01*
X129221490Y-65675805D01*
X129091477Y-65663000D01*
X129091469Y-65663000D01*
X129048000Y-65658719D01*
X129004531Y-65663000D01*
X128778694Y-65663000D01*
X128754472Y-65583150D01*
X128672405Y-65429614D01*
X128561962Y-65295038D01*
X128427386Y-65184595D01*
X128273850Y-65102528D01*
X128107254Y-65051992D01*
X127934000Y-65034928D01*
X127009000Y-65034928D01*
X126835746Y-65051992D01*
X126669150Y-65102528D01*
X126515614Y-65184595D01*
X126381038Y-65295038D01*
X126270595Y-65429614D01*
X126188528Y-65583150D01*
X126137992Y-65749746D01*
X126120928Y-65923000D01*
X126120928Y-67173000D01*
X126137992Y-67346254D01*
X126188528Y-67512850D01*
X126270595Y-67666386D01*
X126381038Y-67800962D01*
X126515614Y-67911405D01*
X126623000Y-67968804D01*
X126623000Y-68041545D01*
X126590795Y-68089744D01*
X126512774Y-68278102D01*
X126473000Y-68478061D01*
X126473000Y-68681939D01*
X126512774Y-68881898D01*
X126590795Y-69070256D01*
X126704063Y-69239774D01*
X126848226Y-69383937D01*
X127017744Y-69497205D01*
X127206102Y-69575226D01*
X127406061Y-69615000D01*
X127609939Y-69615000D01*
X127809898Y-69575226D01*
X127998256Y-69497205D01*
X128167774Y-69383937D01*
X128311937Y-69239774D01*
X128425205Y-69070256D01*
X128503226Y-68881898D01*
X128543000Y-68681939D01*
X128543000Y-68478061D01*
X128503226Y-68278102D01*
X128425205Y-68089744D01*
X128393000Y-68041546D01*
X128393000Y-67929785D01*
X128427386Y-67911405D01*
X128561962Y-67800962D01*
X128672405Y-67666386D01*
X128721928Y-67573735D01*
X128721928Y-67710000D01*
X128734188Y-67834482D01*
X128770498Y-67954180D01*
X128829463Y-68064494D01*
X128908815Y-68161185D01*
X129005506Y-68240537D01*
X129115820Y-68299502D01*
X129235518Y-68335812D01*
X129360000Y-68348072D01*
X130260000Y-68348072D01*
X130384482Y-68335812D01*
X130504180Y-68299502D01*
X130614494Y-68240537D01*
X130711185Y-68161185D01*
X130721928Y-68148095D01*
X130721928Y-68660000D01*
X130734188Y-68784482D01*
X130770498Y-68904180D01*
X130829463Y-69014494D01*
X130908815Y-69111185D01*
X131005506Y-69190537D01*
X131115820Y-69249502D01*
X131235518Y-69285812D01*
X131360000Y-69298072D01*
X132260000Y-69298072D01*
X132384482Y-69285812D01*
X132504180Y-69249502D01*
X132614494Y-69190537D01*
X132669981Y-69145000D01*
X132991531Y-69145000D01*
X133035000Y-69149281D01*
X133078469Y-69145000D01*
X133078477Y-69145000D01*
X133208490Y-69132195D01*
X133375313Y-69081589D01*
X133529059Y-68999411D01*
X133570629Y-68965295D01*
X133655150Y-69010472D01*
X133821746Y-69061008D01*
X133995000Y-69078072D01*
X135245000Y-69078072D01*
X135418254Y-69061008D01*
X135513000Y-69032267D01*
X135513000Y-69353701D01*
X135495000Y-69351928D01*
X134905750Y-69355000D01*
X134747000Y-69513750D01*
X134747000Y-70575500D01*
X134767000Y-70575500D01*
X134767000Y-70829500D01*
X134747000Y-70829500D01*
X134747000Y-70849500D01*
X134493000Y-70849500D01*
X134493000Y-70829500D01*
X133268750Y-70829500D01*
X133110000Y-70988250D01*
X133106928Y-71415000D01*
X133119188Y-71539482D01*
X133155498Y-71659180D01*
X133214463Y-71769494D01*
X133293815Y-71866185D01*
X133390506Y-71945537D01*
X133500820Y-72004502D01*
X133528834Y-72013000D01*
X132885465Y-72013000D01*
X132841999Y-72008719D01*
X132798533Y-72013000D01*
X132798523Y-72013000D01*
X132668510Y-72025805D01*
X132501687Y-72076411D01*
X132410625Y-72125084D01*
X132410000Y-72040750D01*
X132251250Y-71882000D01*
X131327000Y-71882000D01*
X131327000Y-72931250D01*
X131485750Y-73090000D01*
X131609355Y-73091313D01*
X130754183Y-74016928D01*
X130660000Y-74016928D01*
X130506255Y-74032071D01*
X130425000Y-74056719D01*
X130425000Y-73576465D01*
X130429281Y-73532999D01*
X130425000Y-73489533D01*
X130425000Y-73489523D01*
X130412195Y-73359510D01*
X130361589Y-73192687D01*
X130279411Y-73038941D01*
X130168817Y-72904183D01*
X130135045Y-72876467D01*
X130096689Y-72838111D01*
X130102962Y-72832962D01*
X130108342Y-72826406D01*
X130173815Y-72906185D01*
X130270506Y-72985537D01*
X130380820Y-73044502D01*
X130500518Y-73080812D01*
X130625000Y-73093072D01*
X130914250Y-73090000D01*
X131073000Y-72931250D01*
X131073000Y-71882000D01*
X131053000Y-71882000D01*
X131053000Y-71628000D01*
X131073000Y-71628000D01*
X131073000Y-70578750D01*
X131327000Y-70578750D01*
X131327000Y-71628000D01*
X132251250Y-71628000D01*
X132410000Y-71469250D01*
X132413072Y-71055000D01*
X132400812Y-70930518D01*
X132364502Y-70810820D01*
X132305537Y-70700506D01*
X132226185Y-70603815D01*
X132129494Y-70524463D01*
X132019180Y-70465498D01*
X131899482Y-70429188D01*
X131775000Y-70416928D01*
X131485750Y-70420000D01*
X131327000Y-70578750D01*
X131073000Y-70578750D01*
X130914250Y-70420000D01*
X130625000Y-70416928D01*
X130500518Y-70429188D01*
X130380820Y-70465498D01*
X130270506Y-70524463D01*
X130173815Y-70603815D01*
X130108342Y-70683594D01*
X130102962Y-70677038D01*
X129968387Y-70566595D01*
X129814851Y-70484528D01*
X129648255Y-70433992D01*
X129475001Y-70416928D01*
X128824999Y-70416928D01*
X128651745Y-70433992D01*
X128485149Y-70484528D01*
X128331613Y-70566595D01*
X128197038Y-70677038D01*
X128086595Y-70811613D01*
X128055386Y-70870000D01*
X125646465Y-70870000D01*
X125602999Y-70865719D01*
X125559533Y-70870000D01*
X125559523Y-70870000D01*
X125429510Y-70882805D01*
X125262687Y-70933411D01*
X125108941Y-71015589D01*
X125108939Y-71015590D01*
X125108940Y-71015590D01*
X125007953Y-71098468D01*
X125007951Y-71098470D01*
X124974183Y-71126183D01*
X124946470Y-71159951D01*
X123966422Y-72140000D01*
X123224965Y-72140000D01*
X123275000Y-71888456D01*
X123275000Y-71621544D01*
X123222928Y-71359761D01*
X123120785Y-71113167D01*
X122972497Y-70891238D01*
X122805000Y-70723741D01*
X122805000Y-69990000D01*
X133106928Y-69990000D01*
X133110000Y-70416750D01*
X133268750Y-70575500D01*
X134493000Y-70575500D01*
X134493000Y-69513750D01*
X134334250Y-69355000D01*
X133745000Y-69351928D01*
X133620518Y-69364188D01*
X133500820Y-69400498D01*
X133390506Y-69459463D01*
X133293815Y-69538815D01*
X133214463Y-69635506D01*
X133155498Y-69745820D01*
X133119188Y-69865518D01*
X133106928Y-69990000D01*
X122805000Y-69990000D01*
X122805000Y-68438578D01*
X123426129Y-67817450D01*
X123540614Y-67911405D01*
X123694150Y-67993472D01*
X123860746Y-68044008D01*
X124034000Y-68061072D01*
X124959000Y-68061072D01*
X125132254Y-68044008D01*
X125298850Y-67993472D01*
X125452386Y-67911405D01*
X125586962Y-67800962D01*
X125697405Y-67666386D01*
X125779472Y-67512850D01*
X125830008Y-67346254D01*
X125847072Y-67173000D01*
X125847072Y-65923000D01*
X125830008Y-65749746D01*
X125779472Y-65583150D01*
X125697405Y-65429614D01*
X125685651Y-65415291D01*
X125713195Y-65324490D01*
X125713447Y-65321928D01*
X125726000Y-65194477D01*
X125726000Y-65194469D01*
X125730281Y-65151000D01*
X125726000Y-65107531D01*
X125726000Y-64838072D01*
X126055001Y-64838072D01*
X126228255Y-64821008D01*
X126394851Y-64770472D01*
X126548387Y-64688405D01*
X126682962Y-64577962D01*
X126688342Y-64571406D01*
X126753815Y-64651185D01*
X126850506Y-64730537D01*
X126960820Y-64789502D01*
X127080518Y-64825812D01*
X127205000Y-64838072D01*
X127494250Y-64835000D01*
X127653000Y-64676250D01*
X127653000Y-63627000D01*
X127907000Y-63627000D01*
X127907000Y-64676250D01*
X128065750Y-64835000D01*
X128355000Y-64838072D01*
X128479482Y-64825812D01*
X128599180Y-64789502D01*
X128709494Y-64730537D01*
X128806185Y-64651185D01*
X128885537Y-64554494D01*
X128944502Y-64444180D01*
X128980812Y-64324482D01*
X128993072Y-64200000D01*
X128990000Y-63785750D01*
X128831250Y-63627000D01*
X127907000Y-63627000D01*
X127653000Y-63627000D01*
X127633000Y-63627000D01*
X127633000Y-63373000D01*
X127653000Y-63373000D01*
X127653000Y-62323750D01*
X127907000Y-62323750D01*
X127907000Y-63373000D01*
X128831250Y-63373000D01*
X128990000Y-63214250D01*
X128993072Y-62800000D01*
X128980812Y-62675518D01*
X128944502Y-62555820D01*
X128885537Y-62445506D01*
X128806185Y-62348815D01*
X128709494Y-62269463D01*
X128599180Y-62210498D01*
X128479482Y-62174188D01*
X128355000Y-62161928D01*
X128065750Y-62165000D01*
X127907000Y-62323750D01*
X127653000Y-62323750D01*
X127494250Y-62165000D01*
X127205000Y-62161928D01*
X127080518Y-62174188D01*
X126960820Y-62210498D01*
X126850506Y-62269463D01*
X126753815Y-62348815D01*
X126688342Y-62428594D01*
X126682962Y-62422038D01*
X126615000Y-62366263D01*
X126615000Y-61062621D01*
X126724180Y-61029502D01*
X126834494Y-60970537D01*
X126931185Y-60891185D01*
X127010537Y-60794494D01*
X127069502Y-60684180D01*
X127080782Y-60646993D01*
X127492612Y-60646993D01*
X127558137Y-60885860D01*
X127805116Y-61001760D01*
X128069960Y-61067250D01*
X128342492Y-61079812D01*
X128612238Y-61038965D01*
X128868832Y-60946277D01*
X128981863Y-60885860D01*
X129047388Y-60646993D01*
X128270000Y-59869605D01*
X127492612Y-60646993D01*
X127080782Y-60646993D01*
X127105812Y-60564482D01*
X127118072Y-60440000D01*
X127118072Y-60413914D01*
X127313007Y-60467388D01*
X128090395Y-59690000D01*
X127313007Y-58912612D01*
X127118072Y-58966086D01*
X127118072Y-58940000D01*
X127105812Y-58815518D01*
X127080783Y-58733007D01*
X127492612Y-58733007D01*
X128270000Y-59510395D01*
X129047388Y-58733007D01*
X128981863Y-58494140D01*
X128734884Y-58378240D01*
X128470040Y-58312750D01*
X128197508Y-58300188D01*
X127927762Y-58341035D01*
X127671168Y-58433723D01*
X127558137Y-58494140D01*
X127492612Y-58733007D01*
X127080783Y-58733007D01*
X127069502Y-58695820D01*
X127010537Y-58585506D01*
X126931185Y-58488815D01*
X126834494Y-58409463D01*
X126724180Y-58350498D01*
X126604482Y-58314188D01*
X126480000Y-58301928D01*
X124980000Y-58301928D01*
X124855518Y-58314188D01*
X124735820Y-58350498D01*
X124625506Y-58409463D01*
X124528815Y-58488815D01*
X124449463Y-58585506D01*
X124390498Y-58695820D01*
X124354188Y-58815518D01*
X124341928Y-58940000D01*
X124341928Y-60440000D01*
X124354188Y-60564482D01*
X124390498Y-60684180D01*
X124449463Y-60794494D01*
X124528815Y-60891185D01*
X124625506Y-60970537D01*
X124735820Y-61029502D01*
X124845000Y-61062621D01*
X124845001Y-62366262D01*
X124777038Y-62422038D01*
X124666595Y-62556613D01*
X124584528Y-62710149D01*
X124538827Y-62860806D01*
X124526183Y-62871183D01*
X124498466Y-62904956D01*
X124245956Y-63157466D01*
X124212183Y-63185183D01*
X124101589Y-63319942D01*
X124019411Y-63473688D01*
X123988798Y-63574604D01*
X123968805Y-63640510D01*
X123968045Y-63648223D01*
X123956000Y-63770524D01*
X123956000Y-63770531D01*
X123951719Y-63814000D01*
X123956000Y-63857470D01*
X123956001Y-64784421D01*
X123901456Y-64838966D01*
X123867683Y-64866683D01*
X123757089Y-65001442D01*
X123704782Y-65099303D01*
X123694150Y-65102528D01*
X123540614Y-65184595D01*
X123406038Y-65295038D01*
X123295595Y-65429614D01*
X123213528Y-65583150D01*
X123176798Y-65704233D01*
X123103687Y-65726411D01*
X122949941Y-65808589D01*
X122949939Y-65808590D01*
X122949940Y-65808590D01*
X122848953Y-65891468D01*
X122848951Y-65891470D01*
X122815183Y-65919183D01*
X122787470Y-65952951D01*
X121324951Y-67415471D01*
X121291184Y-67443183D01*
X121263471Y-67476951D01*
X121263468Y-67476954D01*
X121180590Y-67577941D01*
X121098412Y-67731687D01*
X121047805Y-67898510D01*
X121030719Y-68072000D01*
X121035001Y-68115479D01*
X121035000Y-70723741D01*
X120867503Y-70891238D01*
X120719215Y-71113167D01*
X120617072Y-71359761D01*
X120565000Y-71621544D01*
X120565000Y-71888456D01*
X120617072Y-72150239D01*
X120648448Y-72225987D01*
X120536941Y-72285589D01*
X120435953Y-72368468D01*
X120435951Y-72368470D01*
X120402183Y-72396183D01*
X120374470Y-72429951D01*
X119800951Y-73003471D01*
X119767184Y-73031183D01*
X119739471Y-73064951D01*
X119739468Y-73064954D01*
X119656590Y-73165941D01*
X119574412Y-73319687D01*
X119523805Y-73486510D01*
X119506719Y-73660000D01*
X118262000Y-73660000D01*
X118262000Y-65811000D01*
X121698419Y-65811000D01*
X121727039Y-65808181D01*
X121736456Y-65808247D01*
X121745627Y-65807348D01*
X122041431Y-65776258D01*
X122100028Y-65764229D01*
X122158790Y-65753020D01*
X122167612Y-65750356D01*
X122451743Y-65662402D01*
X122506875Y-65639227D01*
X122562349Y-65616814D01*
X122570486Y-65612487D01*
X122832122Y-65471021D01*
X122881689Y-65437588D01*
X122931768Y-65404817D01*
X122938909Y-65398993D01*
X123168084Y-65209403D01*
X123210206Y-65166985D01*
X123252976Y-65125103D01*
X123258850Y-65118002D01*
X123446836Y-64887508D01*
X123479951Y-64837666D01*
X123513735Y-64788326D01*
X123518118Y-64780219D01*
X123657754Y-64517601D01*
X123680548Y-64462299D01*
X123704114Y-64407316D01*
X123706839Y-64398513D01*
X123792807Y-64113775D01*
X123804427Y-64055090D01*
X123816863Y-63996582D01*
X123817826Y-63987417D01*
X123846850Y-63691404D01*
X123846850Y-63691402D01*
X123850000Y-63659419D01*
X123850000Y-56794000D01*
X132690000Y-56794000D01*
X132690001Y-61754419D01*
G37*
X132690001Y-61754419D02*
X132692819Y-61783030D01*
X132692753Y-61792456D01*
X132693652Y-61801627D01*
X132724742Y-62097431D01*
X132736771Y-62156028D01*
X132747980Y-62214790D01*
X132750644Y-62223612D01*
X132838598Y-62507743D01*
X132861773Y-62562875D01*
X132884186Y-62618349D01*
X132888513Y-62626486D01*
X133029979Y-62888122D01*
X133063412Y-62937689D01*
X133096183Y-62987768D01*
X133102007Y-62994909D01*
X133291597Y-63224084D01*
X133334015Y-63266206D01*
X133375897Y-63308976D01*
X133382998Y-63314850D01*
X133613492Y-63502836D01*
X133663334Y-63535951D01*
X133712674Y-63569735D01*
X133720781Y-63574118D01*
X133983399Y-63713754D01*
X134038701Y-63736548D01*
X134093684Y-63760114D01*
X134102487Y-63762839D01*
X134387225Y-63848807D01*
X134445910Y-63860427D01*
X134504418Y-63872863D01*
X134513581Y-63873826D01*
X134513583Y-63873826D01*
X134809596Y-63902850D01*
X134809598Y-63902850D01*
X134841581Y-63906000D01*
X138278000Y-63906000D01*
X138278001Y-83668000D01*
X118262000Y-83668000D01*
X118262000Y-73660000D01*
X119506719Y-73660000D01*
X119511001Y-73703479D01*
X119511000Y-79709739D01*
X119506719Y-79753208D01*
X119511000Y-79796677D01*
X119511000Y-79796684D01*
X119523805Y-79926697D01*
X119574411Y-80093520D01*
X119656589Y-80247266D01*
X119765001Y-80379366D01*
X119765000Y-81053405D01*
X119750000Y-81128816D01*
X119750000Y-81431184D01*
X119808989Y-81727743D01*
X119924701Y-82007095D01*
X120092688Y-82258505D01*
X120306495Y-82472312D01*
X120557905Y-82640299D01*
X120837257Y-82756011D01*
X121133816Y-82815000D01*
X121436184Y-82815000D01*
X121732743Y-82756011D01*
X122012095Y-82640299D01*
X122263505Y-82472312D01*
X122477312Y-82258505D01*
X122645299Y-82007095D01*
X122761011Y-81727743D01*
X122820000Y-81431184D01*
X122820000Y-81128816D01*
X122761011Y-80832257D01*
X122645299Y-80552905D01*
X122477312Y-80301495D01*
X122263505Y-80087688D01*
X122012095Y-79919701D01*
X121732743Y-79803989D01*
X121499077Y-79757510D01*
X121471589Y-79666895D01*
X121389411Y-79513149D01*
X121281000Y-79381051D01*
X121281000Y-78036958D01*
X121524761Y-78137928D01*
X121786544Y-78190000D01*
X122053456Y-78190000D01*
X122315239Y-78137928D01*
X122561833Y-78035785D01*
X122783762Y-77887497D01*
X122972497Y-77698762D01*
X123120785Y-77476833D01*
X123222928Y-77230239D01*
X123243954Y-77124533D01*
X125515953Y-79396532D01*
X125515959Y-79396537D01*
X125708466Y-79589044D01*
X125736183Y-79622817D01*
X125870941Y-79733411D01*
X126024687Y-79815589D01*
X126191510Y-79866195D01*
X126321523Y-79879000D01*
X126321533Y-79879000D01*
X126364999Y-79883281D01*
X126408465Y-79879000D01*
X127339414Y-79879000D01*
X127331928Y-79955000D01*
X127331928Y-81405000D01*
X127347071Y-81558745D01*
X127391916Y-81706582D01*
X127464742Y-81842829D01*
X127562749Y-81962251D01*
X127682171Y-82060258D01*
X127818418Y-82133084D01*
X127966255Y-82177929D01*
X128120000Y-82193072D01*
X128420000Y-82193072D01*
X128573745Y-82177929D01*
X128721582Y-82133084D01*
X128857829Y-82060258D01*
X128905000Y-82021546D01*
X128952171Y-82060258D01*
X129088418Y-82133084D01*
X129236255Y-82177929D01*
X129390000Y-82193072D01*
X129690000Y-82193072D01*
X129843745Y-82177929D01*
X129991582Y-82133084D01*
X130127829Y-82060258D01*
X130175000Y-82021546D01*
X130222171Y-82060258D01*
X130358418Y-82133084D01*
X130506255Y-82177929D01*
X130660000Y-82193072D01*
X130960000Y-82193072D01*
X131113745Y-82177929D01*
X131261582Y-82133084D01*
X131395936Y-82061270D01*
X131425506Y-82085537D01*
X131535820Y-82144502D01*
X131655518Y-82180812D01*
X131780000Y-82193072D01*
X131794250Y-82190000D01*
X131953000Y-82031250D01*
X131953000Y-80807000D01*
X132207000Y-80807000D01*
X132207000Y-82031250D01*
X132365750Y-82190000D01*
X132380000Y-82193072D01*
X132504482Y-82180812D01*
X132624180Y-82144502D01*
X132734494Y-82085537D01*
X132831185Y-82006185D01*
X132910537Y-81909494D01*
X132969502Y-81799180D01*
X133005812Y-81679482D01*
X133018072Y-81555000D01*
X133015851Y-81128816D01*
X134355000Y-81128816D01*
X134355000Y-81431184D01*
X134413989Y-81727743D01*
X134529701Y-82007095D01*
X134697688Y-82258505D01*
X134911495Y-82472312D01*
X135162905Y-82640299D01*
X135442257Y-82756011D01*
X135738816Y-82815000D01*
X136041184Y-82815000D01*
X136337743Y-82756011D01*
X136617095Y-82640299D01*
X136868505Y-82472312D01*
X137082312Y-82258505D01*
X137250299Y-82007095D01*
X137366011Y-81727743D01*
X137425000Y-81431184D01*
X137425000Y-81128816D01*
X137366011Y-80832257D01*
X137250299Y-80552905D01*
X137082312Y-80301495D01*
X136868505Y-80087688D01*
X136617095Y-79919701D01*
X136337743Y-79803989D01*
X136041184Y-79745000D01*
X135738816Y-79745000D01*
X135442257Y-79803989D01*
X135162905Y-79919701D01*
X134911495Y-80087688D01*
X134697688Y-80301495D01*
X134529701Y-80552905D01*
X134413989Y-80832257D01*
X134355000Y-81128816D01*
X133015851Y-81128816D01*
X133015000Y-80965750D01*
X132856250Y-80807000D01*
X132207000Y-80807000D01*
X131953000Y-80807000D01*
X131933000Y-80807000D01*
X131933000Y-80553000D01*
X131953000Y-80553000D01*
X131953000Y-79328750D01*
X132207000Y-79328750D01*
X132207000Y-80553000D01*
X132856250Y-80553000D01*
X133015000Y-80394250D01*
X133018072Y-79805000D01*
X133005812Y-79680518D01*
X132969502Y-79560820D01*
X132910537Y-79450506D01*
X132831185Y-79353815D01*
X132734494Y-79274463D01*
X132624180Y-79215498D01*
X132504482Y-79179188D01*
X132380000Y-79166928D01*
X132365750Y-79170000D01*
X132207000Y-79328750D01*
X131953000Y-79328750D01*
X131794250Y-79170000D01*
X131780000Y-79166928D01*
X131655518Y-79179188D01*
X131584566Y-79200711D01*
X131549411Y-79134941D01*
X131535447Y-79117926D01*
X131466532Y-79033953D01*
X131466530Y-79033951D01*
X131438817Y-79000183D01*
X131405049Y-78972470D01*
X129561534Y-77128956D01*
X129533817Y-77095183D01*
X129470320Y-77043072D01*
X129690000Y-77043072D01*
X129843745Y-77027929D01*
X129991582Y-76983084D01*
X130127829Y-76910258D01*
X130175000Y-76871546D01*
X130222171Y-76910258D01*
X130358418Y-76983084D01*
X130506255Y-77027929D01*
X130660000Y-77043072D01*
X130960000Y-77043072D01*
X131113745Y-77027929D01*
X131261582Y-76983084D01*
X131397829Y-76910258D01*
X131445000Y-76871546D01*
X131492171Y-76910258D01*
X131628418Y-76983084D01*
X131776255Y-77027929D01*
X131930000Y-77043072D01*
X132230000Y-77043072D01*
X132383745Y-77027929D01*
X132531582Y-76983084D01*
X132667829Y-76910258D01*
X132787251Y-76812251D01*
X132885258Y-76692829D01*
X132958084Y-76556582D01*
X133002929Y-76408745D01*
X133018072Y-76255000D01*
X133018072Y-74805000D01*
X133002929Y-74651255D01*
X132958084Y-74503418D01*
X132885258Y-74367171D01*
X132787251Y-74247749D01*
X132686639Y-74165179D01*
X132838470Y-74000843D01*
X132928313Y-73973588D01*
X133082059Y-73891410D01*
X133183046Y-73808532D01*
X133208578Y-73783000D01*
X135084531Y-73783000D01*
X135128000Y-73787281D01*
X135171469Y-73783000D01*
X135171477Y-73783000D01*
X135301490Y-73770195D01*
X135468313Y-73719589D01*
X135622059Y-73637411D01*
X135756817Y-73526817D01*
X135784534Y-73493044D01*
X136993049Y-72284530D01*
X137026817Y-72256817D01*
X137137411Y-72122059D01*
X137219589Y-71968313D01*
X137270195Y-71801490D01*
X137283000Y-71671477D01*
X137283000Y-71671467D01*
X137287281Y-71628001D01*
X137283000Y-71584535D01*
X137283000Y-68673969D01*
X137287281Y-68630500D01*
X137283000Y-68587031D01*
X137283000Y-68587023D01*
X137270195Y-68457010D01*
X137219589Y-68290187D01*
X137137411Y-68136441D01*
X137133428Y-68131588D01*
X137054532Y-68035453D01*
X137054530Y-68035451D01*
X137026817Y-68001683D01*
X136993050Y-67973971D01*
X136151534Y-67132456D01*
X136123817Y-67098683D01*
X136116065Y-67092321D01*
X136116008Y-67091746D01*
X136065472Y-66925150D01*
X135983405Y-66771614D01*
X135872962Y-66637038D01*
X135738386Y-66526595D01*
X135584850Y-66444528D01*
X135418254Y-66393992D01*
X135245000Y-66376928D01*
X133995000Y-66376928D01*
X133821746Y-66393992D01*
X133655150Y-66444528D01*
X133501614Y-66526595D01*
X133367038Y-66637038D01*
X133256595Y-66771614D01*
X133174528Y-66925150D01*
X133171303Y-66935781D01*
X133073441Y-66988089D01*
X132938683Y-67098683D01*
X132910966Y-67132456D01*
X132669125Y-67374297D01*
X132614494Y-67329463D01*
X132578082Y-67310000D01*
X132614494Y-67290537D01*
X132711185Y-67211185D01*
X132790537Y-67114494D01*
X132849502Y-67004180D01*
X132885812Y-66884482D01*
X132898072Y-66760000D01*
X132898072Y-65960000D01*
X132885812Y-65835518D01*
X132849502Y-65715820D01*
X132790537Y-65605506D01*
X132711185Y-65508815D01*
X132695000Y-65495532D01*
X132695000Y-65178469D01*
X132699281Y-65135000D01*
X132695000Y-65091531D01*
X132695000Y-65091523D01*
X132682195Y-64961510D01*
X132663674Y-64900454D01*
X132631589Y-64794686D01*
X132549411Y-64640941D01*
X132466532Y-64539953D01*
X132466530Y-64539951D01*
X132438817Y-64506183D01*
X132405050Y-64478471D01*
X131695000Y-63768422D01*
X131695000Y-60763685D01*
X131885799Y-60572886D01*
X132037371Y-60346043D01*
X132141775Y-60093989D01*
X132195000Y-59826411D01*
X132195000Y-59553589D01*
X132141775Y-59286011D01*
X132037371Y-59033957D01*
X131885799Y-58807114D01*
X131692886Y-58614201D01*
X131466043Y-58462629D01*
X131213989Y-58358225D01*
X130946411Y-58305000D01*
X130673589Y-58305000D01*
X130406011Y-58358225D01*
X130153957Y-58462629D01*
X129927114Y-58614201D01*
X129734201Y-58807114D01*
X129582629Y-59033957D01*
X129541489Y-59133279D01*
X129526277Y-59091168D01*
X129465860Y-58978137D01*
X129226993Y-58912612D01*
X128449605Y-59690000D01*
X129226993Y-60467388D01*
X129465860Y-60401863D01*
X129540164Y-60243523D01*
X129582629Y-60346043D01*
X129734201Y-60572886D01*
X129925000Y-60763685D01*
X129925001Y-64091521D01*
X129920719Y-64135000D01*
X129937805Y-64308490D01*
X129988412Y-64475313D01*
X130070590Y-64629059D01*
X130153468Y-64730046D01*
X130153471Y-64730049D01*
X130181184Y-64763817D01*
X130214951Y-64791529D01*
X130921679Y-65498258D01*
X130908815Y-65508815D01*
X130829463Y-65605506D01*
X130770498Y-65715820D01*
X130734188Y-65835518D01*
X130721928Y-65960000D01*
X130721928Y-66471905D01*
X130711185Y-66458815D01*
X130614494Y-66379463D01*
X130504180Y-66320498D01*
X130384482Y-66284188D01*
X130260000Y-66271928D01*
X130023506Y-66271928D01*
X129704534Y-65952956D01*
X129676817Y-65919183D01*
X129542059Y-65808589D01*
X129388313Y-65726411D01*
X129221490Y-65675805D01*
X129091477Y-65663000D01*
X129091469Y-65663000D01*
X129048000Y-65658719D01*
X129004531Y-65663000D01*
X128778694Y-65663000D01*
X128754472Y-65583150D01*
X128672405Y-65429614D01*
X128561962Y-65295038D01*
X128427386Y-65184595D01*
X128273850Y-65102528D01*
X128107254Y-65051992D01*
X127934000Y-65034928D01*
X127009000Y-65034928D01*
X126835746Y-65051992D01*
X126669150Y-65102528D01*
X126515614Y-65184595D01*
X126381038Y-65295038D01*
X126270595Y-65429614D01*
X126188528Y-65583150D01*
X126137992Y-65749746D01*
X126120928Y-65923000D01*
X126120928Y-67173000D01*
X126137992Y-67346254D01*
X126188528Y-67512850D01*
X126270595Y-67666386D01*
X126381038Y-67800962D01*
X126515614Y-67911405D01*
X126623000Y-67968804D01*
X126623000Y-68041545D01*
X126590795Y-68089744D01*
X126512774Y-68278102D01*
X126473000Y-68478061D01*
X126473000Y-68681939D01*
X126512774Y-68881898D01*
X126590795Y-69070256D01*
X126704063Y-69239774D01*
X126848226Y-69383937D01*
X127017744Y-69497205D01*
X127206102Y-69575226D01*
X127406061Y-69615000D01*
X127609939Y-69615000D01*
X127809898Y-69575226D01*
X127998256Y-69497205D01*
X128167774Y-69383937D01*
X128311937Y-69239774D01*
X128425205Y-69070256D01*
X128503226Y-68881898D01*
X128543000Y-68681939D01*
X128543000Y-68478061D01*
X128503226Y-68278102D01*
X128425205Y-68089744D01*
X128393000Y-68041546D01*
X128393000Y-67929785D01*
X128427386Y-67911405D01*
X128561962Y-67800962D01*
X128672405Y-67666386D01*
X128721928Y-67573735D01*
X128721928Y-67710000D01*
X128734188Y-67834482D01*
X128770498Y-67954180D01*
X128829463Y-68064494D01*
X128908815Y-68161185D01*
X129005506Y-68240537D01*
X129115820Y-68299502D01*
X129235518Y-68335812D01*
X129360000Y-68348072D01*
X130260000Y-68348072D01*
X130384482Y-68335812D01*
X130504180Y-68299502D01*
X130614494Y-68240537D01*
X130711185Y-68161185D01*
X130721928Y-68148095D01*
X130721928Y-68660000D01*
X130734188Y-68784482D01*
X130770498Y-68904180D01*
X130829463Y-69014494D01*
X130908815Y-69111185D01*
X131005506Y-69190537D01*
X131115820Y-69249502D01*
X131235518Y-69285812D01*
X131360000Y-69298072D01*
X132260000Y-69298072D01*
X132384482Y-69285812D01*
X132504180Y-69249502D01*
X132614494Y-69190537D01*
X132669981Y-69145000D01*
X132991531Y-69145000D01*
X133035000Y-69149281D01*
X133078469Y-69145000D01*
X133078477Y-69145000D01*
X133208490Y-69132195D01*
X133375313Y-69081589D01*
X133529059Y-68999411D01*
X133570629Y-68965295D01*
X133655150Y-69010472D01*
X133821746Y-69061008D01*
X133995000Y-69078072D01*
X135245000Y-69078072D01*
X135418254Y-69061008D01*
X135513000Y-69032267D01*
X135513000Y-69353701D01*
X135495000Y-69351928D01*
X134905750Y-69355000D01*
X134747000Y-69513750D01*
X134747000Y-70575500D01*
X134767000Y-70575500D01*
X134767000Y-70829500D01*
X134747000Y-70829500D01*
X134747000Y-70849500D01*
X134493000Y-70849500D01*
X134493000Y-70829500D01*
X133268750Y-70829500D01*
X133110000Y-70988250D01*
X133106928Y-71415000D01*
X133119188Y-71539482D01*
X133155498Y-71659180D01*
X133214463Y-71769494D01*
X133293815Y-71866185D01*
X133390506Y-71945537D01*
X133500820Y-72004502D01*
X133528834Y-72013000D01*
X132885465Y-72013000D01*
X132841999Y-72008719D01*
X132798533Y-72013000D01*
X132798523Y-72013000D01*
X132668510Y-72025805D01*
X132501687Y-72076411D01*
X132410625Y-72125084D01*
X132410000Y-72040750D01*
X132251250Y-71882000D01*
X131327000Y-71882000D01*
X131327000Y-72931250D01*
X131485750Y-73090000D01*
X131609355Y-73091313D01*
X130754183Y-74016928D01*
X130660000Y-74016928D01*
X130506255Y-74032071D01*
X130425000Y-74056719D01*
X130425000Y-73576465D01*
X130429281Y-73532999D01*
X130425000Y-73489533D01*
X130425000Y-73489523D01*
X130412195Y-73359510D01*
X130361589Y-73192687D01*
X130279411Y-73038941D01*
X130168817Y-72904183D01*
X130135045Y-72876467D01*
X130096689Y-72838111D01*
X130102962Y-72832962D01*
X130108342Y-72826406D01*
X130173815Y-72906185D01*
X130270506Y-72985537D01*
X130380820Y-73044502D01*
X130500518Y-73080812D01*
X130625000Y-73093072D01*
X130914250Y-73090000D01*
X131073000Y-72931250D01*
X131073000Y-71882000D01*
X131053000Y-71882000D01*
X131053000Y-71628000D01*
X131073000Y-71628000D01*
X131073000Y-70578750D01*
X131327000Y-70578750D01*
X131327000Y-71628000D01*
X132251250Y-71628000D01*
X132410000Y-71469250D01*
X132413072Y-71055000D01*
X132400812Y-70930518D01*
X132364502Y-70810820D01*
X132305537Y-70700506D01*
X132226185Y-70603815D01*
X132129494Y-70524463D01*
X132019180Y-70465498D01*
X131899482Y-70429188D01*
X131775000Y-70416928D01*
X131485750Y-70420000D01*
X131327000Y-70578750D01*
X131073000Y-70578750D01*
X130914250Y-70420000D01*
X130625000Y-70416928D01*
X130500518Y-70429188D01*
X130380820Y-70465498D01*
X130270506Y-70524463D01*
X130173815Y-70603815D01*
X130108342Y-70683594D01*
X130102962Y-70677038D01*
X129968387Y-70566595D01*
X129814851Y-70484528D01*
X129648255Y-70433992D01*
X129475001Y-70416928D01*
X128824999Y-70416928D01*
X128651745Y-70433992D01*
X128485149Y-70484528D01*
X128331613Y-70566595D01*
X128197038Y-70677038D01*
X128086595Y-70811613D01*
X128055386Y-70870000D01*
X125646465Y-70870000D01*
X125602999Y-70865719D01*
X125559533Y-70870000D01*
X125559523Y-70870000D01*
X125429510Y-70882805D01*
X125262687Y-70933411D01*
X125108941Y-71015589D01*
X125108939Y-71015590D01*
X125108940Y-71015590D01*
X125007953Y-71098468D01*
X125007951Y-71098470D01*
X124974183Y-71126183D01*
X124946470Y-71159951D01*
X123966422Y-72140000D01*
X123224965Y-72140000D01*
X123275000Y-71888456D01*
X123275000Y-71621544D01*
X123222928Y-71359761D01*
X123120785Y-71113167D01*
X122972497Y-70891238D01*
X122805000Y-70723741D01*
X122805000Y-69990000D01*
X133106928Y-69990000D01*
X133110000Y-70416750D01*
X133268750Y-70575500D01*
X134493000Y-70575500D01*
X134493000Y-69513750D01*
X134334250Y-69355000D01*
X133745000Y-69351928D01*
X133620518Y-69364188D01*
X133500820Y-69400498D01*
X133390506Y-69459463D01*
X133293815Y-69538815D01*
X133214463Y-69635506D01*
X133155498Y-69745820D01*
X133119188Y-69865518D01*
X133106928Y-69990000D01*
X122805000Y-69990000D01*
X122805000Y-68438578D01*
X123426129Y-67817450D01*
X123540614Y-67911405D01*
X123694150Y-67993472D01*
X123860746Y-68044008D01*
X124034000Y-68061072D01*
X124959000Y-68061072D01*
X125132254Y-68044008D01*
X125298850Y-67993472D01*
X125452386Y-67911405D01*
X125586962Y-67800962D01*
X125697405Y-67666386D01*
X125779472Y-67512850D01*
X125830008Y-67346254D01*
X125847072Y-67173000D01*
X125847072Y-65923000D01*
X125830008Y-65749746D01*
X125779472Y-65583150D01*
X125697405Y-65429614D01*
X125685651Y-65415291D01*
X125713195Y-65324490D01*
X125713447Y-65321928D01*
X125726000Y-65194477D01*
X125726000Y-65194469D01*
X125730281Y-65151000D01*
X125726000Y-65107531D01*
X125726000Y-64838072D01*
X126055001Y-64838072D01*
X126228255Y-64821008D01*
X126394851Y-64770472D01*
X126548387Y-64688405D01*
X126682962Y-64577962D01*
X126688342Y-64571406D01*
X126753815Y-64651185D01*
X126850506Y-64730537D01*
X126960820Y-64789502D01*
X127080518Y-64825812D01*
X127205000Y-64838072D01*
X127494250Y-64835000D01*
X127653000Y-64676250D01*
X127653000Y-63627000D01*
X127907000Y-63627000D01*
X127907000Y-64676250D01*
X128065750Y-64835000D01*
X128355000Y-64838072D01*
X128479482Y-64825812D01*
X128599180Y-64789502D01*
X128709494Y-64730537D01*
X128806185Y-64651185D01*
X128885537Y-64554494D01*
X128944502Y-64444180D01*
X128980812Y-64324482D01*
X128993072Y-64200000D01*
X128990000Y-63785750D01*
X128831250Y-63627000D01*
X127907000Y-63627000D01*
X127653000Y-63627000D01*
X127633000Y-63627000D01*
X127633000Y-63373000D01*
X127653000Y-63373000D01*
X127653000Y-62323750D01*
X127907000Y-62323750D01*
X127907000Y-63373000D01*
X128831250Y-63373000D01*
X128990000Y-63214250D01*
X128993072Y-62800000D01*
X128980812Y-62675518D01*
X128944502Y-62555820D01*
X128885537Y-62445506D01*
X128806185Y-62348815D01*
X128709494Y-62269463D01*
X128599180Y-62210498D01*
X128479482Y-62174188D01*
X128355000Y-62161928D01*
X128065750Y-62165000D01*
X127907000Y-62323750D01*
X127653000Y-62323750D01*
X127494250Y-62165000D01*
X127205000Y-62161928D01*
X127080518Y-62174188D01*
X126960820Y-62210498D01*
X126850506Y-62269463D01*
X126753815Y-62348815D01*
X126688342Y-62428594D01*
X126682962Y-62422038D01*
X126615000Y-62366263D01*
X126615000Y-61062621D01*
X126724180Y-61029502D01*
X126834494Y-60970537D01*
X126931185Y-60891185D01*
X127010537Y-60794494D01*
X127069502Y-60684180D01*
X127080782Y-60646993D01*
X127492612Y-60646993D01*
X127558137Y-60885860D01*
X127805116Y-61001760D01*
X128069960Y-61067250D01*
X128342492Y-61079812D01*
X128612238Y-61038965D01*
X128868832Y-60946277D01*
X128981863Y-60885860D01*
X129047388Y-60646993D01*
X128270000Y-59869605D01*
X127492612Y-60646993D01*
X127080782Y-60646993D01*
X127105812Y-60564482D01*
X127118072Y-60440000D01*
X127118072Y-60413914D01*
X127313007Y-60467388D01*
X128090395Y-59690000D01*
X127313007Y-58912612D01*
X127118072Y-58966086D01*
X127118072Y-58940000D01*
X127105812Y-58815518D01*
X127080783Y-58733007D01*
X127492612Y-58733007D01*
X128270000Y-59510395D01*
X129047388Y-58733007D01*
X128981863Y-58494140D01*
X128734884Y-58378240D01*
X128470040Y-58312750D01*
X128197508Y-58300188D01*
X127927762Y-58341035D01*
X127671168Y-58433723D01*
X127558137Y-58494140D01*
X127492612Y-58733007D01*
X127080783Y-58733007D01*
X127069502Y-58695820D01*
X127010537Y-58585506D01*
X126931185Y-58488815D01*
X126834494Y-58409463D01*
X126724180Y-58350498D01*
X126604482Y-58314188D01*
X126480000Y-58301928D01*
X124980000Y-58301928D01*
X124855518Y-58314188D01*
X124735820Y-58350498D01*
X124625506Y-58409463D01*
X124528815Y-58488815D01*
X124449463Y-58585506D01*
X124390498Y-58695820D01*
X124354188Y-58815518D01*
X124341928Y-58940000D01*
X124341928Y-60440000D01*
X124354188Y-60564482D01*
X124390498Y-60684180D01*
X124449463Y-60794494D01*
X124528815Y-60891185D01*
X124625506Y-60970537D01*
X124735820Y-61029502D01*
X124845000Y-61062621D01*
X124845001Y-62366262D01*
X124777038Y-62422038D01*
X124666595Y-62556613D01*
X124584528Y-62710149D01*
X124538827Y-62860806D01*
X124526183Y-62871183D01*
X124498466Y-62904956D01*
X124245956Y-63157466D01*
X124212183Y-63185183D01*
X124101589Y-63319942D01*
X124019411Y-63473688D01*
X123988798Y-63574604D01*
X123968805Y-63640510D01*
X123968045Y-63648223D01*
X123956000Y-63770524D01*
X123956000Y-63770531D01*
X123951719Y-63814000D01*
X123956000Y-63857470D01*
X123956001Y-64784421D01*
X123901456Y-64838966D01*
X123867683Y-64866683D01*
X123757089Y-65001442D01*
X123704782Y-65099303D01*
X123694150Y-65102528D01*
X123540614Y-65184595D01*
X123406038Y-65295038D01*
X123295595Y-65429614D01*
X123213528Y-65583150D01*
X123176798Y-65704233D01*
X123103687Y-65726411D01*
X122949941Y-65808589D01*
X122949939Y-65808590D01*
X122949940Y-65808590D01*
X122848953Y-65891468D01*
X122848951Y-65891470D01*
X122815183Y-65919183D01*
X122787470Y-65952951D01*
X121324951Y-67415471D01*
X121291184Y-67443183D01*
X121263471Y-67476951D01*
X121263468Y-67476954D01*
X121180590Y-67577941D01*
X121098412Y-67731687D01*
X121047805Y-67898510D01*
X121030719Y-68072000D01*
X121035001Y-68115479D01*
X121035000Y-70723741D01*
X120867503Y-70891238D01*
X120719215Y-71113167D01*
X120617072Y-71359761D01*
X120565000Y-71621544D01*
X120565000Y-71888456D01*
X120617072Y-72150239D01*
X120648448Y-72225987D01*
X120536941Y-72285589D01*
X120435953Y-72368468D01*
X120435951Y-72368470D01*
X120402183Y-72396183D01*
X120374470Y-72429951D01*
X119800951Y-73003471D01*
X119767184Y-73031183D01*
X119739471Y-73064951D01*
X119739468Y-73064954D01*
X119656590Y-73165941D01*
X119574412Y-73319687D01*
X119523805Y-73486510D01*
X119506719Y-73660000D01*
X118262000Y-73660000D01*
X118262000Y-65811000D01*
X121698419Y-65811000D01*
X121727039Y-65808181D01*
X121736456Y-65808247D01*
X121745627Y-65807348D01*
X122041431Y-65776258D01*
X122100028Y-65764229D01*
X122158790Y-65753020D01*
X122167612Y-65750356D01*
X122451743Y-65662402D01*
X122506875Y-65639227D01*
X122562349Y-65616814D01*
X122570486Y-65612487D01*
X122832122Y-65471021D01*
X122881689Y-65437588D01*
X122931768Y-65404817D01*
X122938909Y-65398993D01*
X123168084Y-65209403D01*
X123210206Y-65166985D01*
X123252976Y-65125103D01*
X123258850Y-65118002D01*
X123446836Y-64887508D01*
X123479951Y-64837666D01*
X123513735Y-64788326D01*
X123518118Y-64780219D01*
X123657754Y-64517601D01*
X123680548Y-64462299D01*
X123704114Y-64407316D01*
X123706839Y-64398513D01*
X123792807Y-64113775D01*
X123804427Y-64055090D01*
X123816863Y-63996582D01*
X123817826Y-63987417D01*
X123846850Y-63691404D01*
X123846850Y-63691402D01*
X123850000Y-63659419D01*
X123850000Y-56794000D01*
X132690000Y-56794000D01*
X132690001Y-61754419D01*
G36*
X128086595Y-72698387D02*
G01*
X128197038Y-72832962D01*
X128265001Y-72888738D01*
X128265001Y-73099521D01*
X128260719Y-73143000D01*
X128277805Y-73316490D01*
X128328412Y-73483313D01*
X128410590Y-73637059D01*
X128493468Y-73738046D01*
X128493471Y-73738049D01*
X128521184Y-73771817D01*
X128554952Y-73799530D01*
X128655000Y-73899578D01*
X128655000Y-74056719D01*
X128573745Y-74032071D01*
X128420000Y-74016928D01*
X128120000Y-74016928D01*
X127966255Y-74032071D01*
X127818418Y-74076916D01*
X127682171Y-74149742D01*
X127562749Y-74247749D01*
X127464742Y-74367171D01*
X127391916Y-74503418D01*
X127347071Y-74651255D01*
X127331928Y-74805000D01*
X127331928Y-76255000D01*
X127347071Y-76408745D01*
X127391916Y-76556582D01*
X127464742Y-76692829D01*
X127562749Y-76812251D01*
X127595343Y-76839000D01*
X127366579Y-76839000D01*
X124432100Y-73904522D01*
X124506490Y-73897195D01*
X124673313Y-73846589D01*
X124827059Y-73764411D01*
X124961817Y-73653817D01*
X124989534Y-73620044D01*
X125969579Y-72640000D01*
X128055386Y-72640000D01*
X128086595Y-72698387D01*
G37*
X128086595Y-72698387D02*
X128197038Y-72832962D01*
X128265001Y-72888738D01*
X128265001Y-73099521D01*
X128260719Y-73143000D01*
X128277805Y-73316490D01*
X128328412Y-73483313D01*
X128410590Y-73637059D01*
X128493468Y-73738046D01*
X128493471Y-73738049D01*
X128521184Y-73771817D01*
X128554952Y-73799530D01*
X128655000Y-73899578D01*
X128655000Y-74056719D01*
X128573745Y-74032071D01*
X128420000Y-74016928D01*
X128120000Y-74016928D01*
X127966255Y-74032071D01*
X127818418Y-74076916D01*
X127682171Y-74149742D01*
X127562749Y-74247749D01*
X127464742Y-74367171D01*
X127391916Y-74503418D01*
X127347071Y-74651255D01*
X127331928Y-74805000D01*
X127331928Y-76255000D01*
X127347071Y-76408745D01*
X127391916Y-76556582D01*
X127464742Y-76692829D01*
X127562749Y-76812251D01*
X127595343Y-76839000D01*
X127366579Y-76839000D01*
X124432100Y-73904522D01*
X124506490Y-73897195D01*
X124673313Y-73846589D01*
X124827059Y-73764411D01*
X124961817Y-73653817D01*
X124989534Y-73620044D01*
X125969579Y-72640000D01*
X128055386Y-72640000D01*
X128086595Y-72698387D01*
M02*
