G04 #@! TF.GenerationSoftware,KiCad,Pcbnew,(5.1.5)-1*
G04 #@! TF.CreationDate,2021-04-01T17:00:37+02:00*
G04 #@! TF.ProjectId,KonstantStromQuelle,4b6f6e73-7461-46e7-9453-74726f6d5175,rev?*
G04 #@! TF.SameCoordinates,Original*
G04 #@! TF.FileFunction,Legend,Bot*
G04 #@! TF.FilePolarity,Positive*
%FSLAX46Y46*%
G04 Gerber Fmt 4.6, Leading zero omitted, Abs format (unit mm)*
G04 Created by KiCad (PCBNEW (5.1.5)-1) date 2021-04-01 17:00:37*
%MOMM*%
%LPD*%
G04 APERTURE LIST*
%ADD10C,0.120000*%
%ADD11C,0.150000*%
G04 APERTURE END LIST*
D10*
X125855000Y-79065000D02*
X124395000Y-79065000D01*
X125855000Y-82225000D02*
X123695000Y-82225000D01*
X125855000Y-82225000D02*
X125855000Y-81295000D01*
X125855000Y-79065000D02*
X125855000Y-79995000D01*
X124185000Y-75532064D02*
X124185000Y-74327936D01*
X126005000Y-75532064D02*
X126005000Y-74327936D01*
D11*
X129031904Y-78827380D02*
X129031904Y-79636904D01*
X128984285Y-79732142D01*
X128936666Y-79779761D01*
X128841428Y-79827380D01*
X128650952Y-79827380D01*
X128555714Y-79779761D01*
X128508095Y-79732142D01*
X128460476Y-79636904D01*
X128460476Y-78827380D01*
X127460476Y-79827380D02*
X128031904Y-79827380D01*
X127746190Y-79827380D02*
X127746190Y-78827380D01*
X127841428Y-78970238D01*
X127936666Y-79065476D01*
X128031904Y-79113095D01*
X130974523Y-83546904D02*
X131355476Y-83546904D01*
X131355476Y-82746904D01*
X130707857Y-83546904D02*
X130707857Y-82746904D01*
X130441190Y-83318333D01*
X130174523Y-82746904D01*
X130174523Y-83546904D01*
X129450714Y-83013571D02*
X129450714Y-83546904D01*
X129641190Y-82708809D02*
X129831666Y-83280238D01*
X129336428Y-83280238D01*
X128879285Y-82746904D02*
X128803095Y-82746904D01*
X128726904Y-82785000D01*
X128688809Y-82823095D01*
X128650714Y-82899285D01*
X128612619Y-83051666D01*
X128612619Y-83242142D01*
X128650714Y-83394523D01*
X128688809Y-83470714D01*
X128726904Y-83508809D01*
X128803095Y-83546904D01*
X128879285Y-83546904D01*
X128955476Y-83508809D01*
X128993571Y-83470714D01*
X129031666Y-83394523D01*
X129069761Y-83242142D01*
X129069761Y-83051666D01*
X129031666Y-82899285D01*
X128993571Y-82823095D01*
X128955476Y-82785000D01*
X128879285Y-82746904D01*
X127926904Y-83013571D02*
X127926904Y-83546904D01*
X128117380Y-82708809D02*
X128307857Y-83280238D01*
X127812619Y-83280238D01*
X127088809Y-83546904D02*
X127545952Y-83546904D01*
X127317380Y-83546904D02*
X127317380Y-82746904D01*
X127393571Y-82861190D01*
X127469761Y-82937380D01*
X127545952Y-82975476D01*
X126745952Y-83546904D02*
X126745952Y-82746904D01*
X126555476Y-82746904D01*
X126441190Y-82785000D01*
X126365000Y-82861190D01*
X126326904Y-82937380D01*
X126288809Y-83089761D01*
X126288809Y-83204047D01*
X126326904Y-83356428D01*
X126365000Y-83432619D01*
X126441190Y-83508809D01*
X126555476Y-83546904D01*
X126745952Y-83546904D01*
X125945952Y-83546904D02*
X125945952Y-82746904D01*
X125565000Y-83546904D02*
X125565000Y-82746904D01*
X125298333Y-83318333D01*
X125031666Y-82746904D01*
X125031666Y-83546904D01*
X124726904Y-82746904D02*
X124231666Y-82746904D01*
X124498333Y-83051666D01*
X124384047Y-83051666D01*
X124307857Y-83089761D01*
X124269761Y-83127857D01*
X124231666Y-83204047D01*
X124231666Y-83394523D01*
X124269761Y-83470714D01*
X124307857Y-83508809D01*
X124384047Y-83546904D01*
X124612619Y-83546904D01*
X124688809Y-83508809D01*
X124726904Y-83470714D01*
X123888809Y-83242142D02*
X123279285Y-83242142D01*
X122479285Y-83546904D02*
X122936428Y-83546904D01*
X122707857Y-83546904D02*
X122707857Y-82746904D01*
X122784047Y-82861190D01*
X122860238Y-82937380D01*
X122936428Y-82975476D01*
X122136428Y-83470714D02*
X122098333Y-83508809D01*
X122136428Y-83546904D01*
X122174523Y-83508809D01*
X122136428Y-83470714D01*
X122136428Y-83546904D01*
X121793571Y-82823095D02*
X121755476Y-82785000D01*
X121679285Y-82746904D01*
X121488809Y-82746904D01*
X121412619Y-82785000D01*
X121374523Y-82823095D01*
X121336428Y-82899285D01*
X121336428Y-82975476D01*
X121374523Y-83089761D01*
X121831666Y-83546904D01*
X121336428Y-83546904D01*
X124912380Y-70953333D02*
X124436190Y-70620000D01*
X124912380Y-70381904D02*
X123912380Y-70381904D01*
X123912380Y-70762857D01*
X123960000Y-70858095D01*
X124007619Y-70905714D01*
X124102857Y-70953333D01*
X124245714Y-70953333D01*
X124340952Y-70905714D01*
X124388571Y-70858095D01*
X124436190Y-70762857D01*
X124436190Y-70381904D01*
X124912380Y-71905714D02*
X124912380Y-71334285D01*
X124912380Y-71620000D02*
X123912380Y-71620000D01*
X124055238Y-71524761D01*
X124150476Y-71429523D01*
X124198095Y-71334285D01*
X127361904Y-71209285D02*
X127361904Y-70752142D01*
X127361904Y-70980714D02*
X126561904Y-70980714D01*
X126676190Y-70904523D01*
X126752380Y-70828333D01*
X126790476Y-70752142D01*
X126561904Y-71704523D02*
X126561904Y-71780714D01*
X126600000Y-71856904D01*
X126638095Y-71895000D01*
X126714285Y-71933095D01*
X126866666Y-71971190D01*
X127057142Y-71971190D01*
X127209523Y-71933095D01*
X127285714Y-71895000D01*
X127323809Y-71856904D01*
X127361904Y-71780714D01*
X127361904Y-71704523D01*
X127323809Y-71628333D01*
X127285714Y-71590238D01*
X127209523Y-71552142D01*
X127057142Y-71514047D01*
X126866666Y-71514047D01*
X126714285Y-71552142D01*
X126638095Y-71590238D01*
X126600000Y-71628333D01*
X126561904Y-71704523D01*
X127361904Y-72314047D02*
X126561904Y-72314047D01*
X127057142Y-72390238D02*
X127361904Y-72618809D01*
X126828571Y-72618809D02*
X127133333Y-72314047D01*
X127361904Y-74028333D02*
X126980952Y-73761666D01*
X127361904Y-73571190D02*
X126561904Y-73571190D01*
X126561904Y-73875952D01*
X126600000Y-73952142D01*
X126638095Y-73990238D01*
X126714285Y-74028333D01*
X126828571Y-74028333D01*
X126904761Y-73990238D01*
X126942857Y-73952142D01*
X126980952Y-73875952D01*
X126980952Y-73571190D01*
X127323809Y-74675952D02*
X127361904Y-74599761D01*
X127361904Y-74447380D01*
X127323809Y-74371190D01*
X127247619Y-74333095D01*
X126942857Y-74333095D01*
X126866666Y-74371190D01*
X126828571Y-74447380D01*
X126828571Y-74599761D01*
X126866666Y-74675952D01*
X126942857Y-74714047D01*
X127019047Y-74714047D01*
X127095238Y-74333095D01*
X127323809Y-75018809D02*
X127361904Y-75095000D01*
X127361904Y-75247380D01*
X127323809Y-75323571D01*
X127247619Y-75361666D01*
X127209523Y-75361666D01*
X127133333Y-75323571D01*
X127095238Y-75247380D01*
X127095238Y-75133095D01*
X127057142Y-75056904D01*
X126980952Y-75018809D01*
X126942857Y-75018809D01*
X126866666Y-75056904D01*
X126828571Y-75133095D01*
X126828571Y-75247380D01*
X126866666Y-75323571D01*
X127323809Y-76009285D02*
X127361904Y-75933095D01*
X127361904Y-75780714D01*
X127323809Y-75704523D01*
X127247619Y-75666428D01*
X126942857Y-75666428D01*
X126866666Y-75704523D01*
X126828571Y-75780714D01*
X126828571Y-75933095D01*
X126866666Y-76009285D01*
X126942857Y-76047380D01*
X127019047Y-76047380D01*
X127095238Y-75666428D01*
X127361904Y-76390238D02*
X126828571Y-76390238D01*
X126980952Y-76390238D02*
X126904761Y-76428333D01*
X126866666Y-76466428D01*
X126828571Y-76542619D01*
X126828571Y-76618809D01*
X126828571Y-76809285D02*
X127361904Y-76999761D01*
X126828571Y-77190238D01*
X127323809Y-77799761D02*
X127361904Y-77723571D01*
X127361904Y-77571190D01*
X127323809Y-77495000D01*
X127247619Y-77456904D01*
X126942857Y-77456904D01*
X126866666Y-77495000D01*
X126828571Y-77571190D01*
X126828571Y-77723571D01*
X126866666Y-77799761D01*
X126942857Y-77837857D01*
X127019047Y-77837857D01*
X127095238Y-77456904D01*
M02*
