M48
; DRILL file {KiCad (5.1.5)-1} date 01.04.2021 16:59:25
; FORMAT={-:-/ absolute / inch / decimal}
; #@! TF.CreationDate,2021-04-01T16:59:25+02:00
; #@! TF.GenerationSoftware,Kicad,Pcbnew,(5.1.5)-1
; #@! TF.FileFunction,Plated,1,2,PTH
FMAT,2
INCH
T1C0.0118
T2C0.0157
T3C0.0315
T4C0.0354
%
G90
G05
T1
X4.85Y-3.07
X4.99Y-2.95
T2
X4.67Y-2.94
X4.67Y-3.06
X4.69Y-2.65
X4.69Y-2.78
X4.85Y-2.7
X4.85Y-2.985
X4.88Y-2.26
X4.99Y-3.28
X5.02Y-2.7
X5.065Y-2.745
X5.1Y-2.495
X5.155Y-2.9
X5.155Y-3.06
X5.22Y-2.26
X5.22Y-3.27
X5.33Y-3.03
X5.4Y-2.54
X5.42Y-2.65
X5.42Y-2.78
X5.42Y-2.93
X5.42Y-3.03
X5.42Y-3.12
T3
X4.8Y-2.825
X4.8Y-2.925
X4.8Y-3.025
X4.95Y-2.35
X5.05Y-2.35
X5.15Y-2.35
T4
X4.775Y-3.2
X5.35Y-3.2
T0
M30
