G04 #@! TF.GenerationSoftware,KiCad,Pcbnew,(5.1.5)-1*
G04 #@! TF.CreationDate,2021-04-01T17:00:37+02:00*
G04 #@! TF.ProjectId,KonstantStromQuelle,4b6f6e73-7461-46e7-9453-74726f6d5175,rev?*
G04 #@! TF.SameCoordinates,Original*
G04 #@! TF.FileFunction,Copper,L2,Bot*
G04 #@! TF.FilePolarity,Positive*
%FSLAX46Y46*%
G04 Gerber Fmt 4.6, Leading zero omitted, Abs format (unit mm)*
G04 Created by KiCad (PCBNEW (5.1.5)-1) date 2021-04-01 17:00:37*
%MOMM*%
%LPD*%
G04 APERTURE LIST*
%ADD10R,0.900000X0.800000*%
%ADD11C,1.500000*%
%ADD12R,1.500000X1.500000*%
%ADD13C,1.800000*%
%ADD14C,0.100000*%
%ADD15C,1.440000*%
%ADD16C,0.700000*%
%ADD17C,0.800000*%
%ADD18C,0.500000*%
%ADD19C,0.250000*%
%ADD20C,0.254000*%
G04 APERTURE END LIST*
D10*
X126095000Y-80645000D03*
X124095000Y-79695000D03*
X124095000Y-81595000D03*
D11*
X128270000Y-59690000D03*
X130810000Y-59690000D03*
D12*
X125730000Y-59690000D03*
D13*
X121285000Y-81280000D03*
X135890000Y-81280000D03*
G04 #@! TA.AperFunction,SMDPad,CuDef*
D14*
G36*
X125744504Y-72731204D02*
G01*
X125768773Y-72734804D01*
X125792571Y-72740765D01*
X125815671Y-72749030D01*
X125837849Y-72759520D01*
X125858893Y-72772133D01*
X125878598Y-72786747D01*
X125896777Y-72803223D01*
X125913253Y-72821402D01*
X125927867Y-72841107D01*
X125940480Y-72862151D01*
X125950970Y-72884329D01*
X125959235Y-72907429D01*
X125965196Y-72931227D01*
X125968796Y-72955496D01*
X125970000Y-72980000D01*
X125970000Y-73905000D01*
X125968796Y-73929504D01*
X125965196Y-73953773D01*
X125959235Y-73977571D01*
X125950970Y-74000671D01*
X125940480Y-74022849D01*
X125927867Y-74043893D01*
X125913253Y-74063598D01*
X125896777Y-74081777D01*
X125878598Y-74098253D01*
X125858893Y-74112867D01*
X125837849Y-74125480D01*
X125815671Y-74135970D01*
X125792571Y-74144235D01*
X125768773Y-74150196D01*
X125744504Y-74153796D01*
X125720000Y-74155000D01*
X124470000Y-74155000D01*
X124445496Y-74153796D01*
X124421227Y-74150196D01*
X124397429Y-74144235D01*
X124374329Y-74135970D01*
X124352151Y-74125480D01*
X124331107Y-74112867D01*
X124311402Y-74098253D01*
X124293223Y-74081777D01*
X124276747Y-74063598D01*
X124262133Y-74043893D01*
X124249520Y-74022849D01*
X124239030Y-74000671D01*
X124230765Y-73977571D01*
X124224804Y-73953773D01*
X124221204Y-73929504D01*
X124220000Y-73905000D01*
X124220000Y-72980000D01*
X124221204Y-72955496D01*
X124224804Y-72931227D01*
X124230765Y-72907429D01*
X124239030Y-72884329D01*
X124249520Y-72862151D01*
X124262133Y-72841107D01*
X124276747Y-72821402D01*
X124293223Y-72803223D01*
X124311402Y-72786747D01*
X124331107Y-72772133D01*
X124352151Y-72759520D01*
X124374329Y-72749030D01*
X124397429Y-72740765D01*
X124421227Y-72734804D01*
X124445496Y-72731204D01*
X124470000Y-72730000D01*
X125720000Y-72730000D01*
X125744504Y-72731204D01*
G37*
G04 #@! TD.AperFunction*
G04 #@! TA.AperFunction,SMDPad,CuDef*
G36*
X125744504Y-75706204D02*
G01*
X125768773Y-75709804D01*
X125792571Y-75715765D01*
X125815671Y-75724030D01*
X125837849Y-75734520D01*
X125858893Y-75747133D01*
X125878598Y-75761747D01*
X125896777Y-75778223D01*
X125913253Y-75796402D01*
X125927867Y-75816107D01*
X125940480Y-75837151D01*
X125950970Y-75859329D01*
X125959235Y-75882429D01*
X125965196Y-75906227D01*
X125968796Y-75930496D01*
X125970000Y-75955000D01*
X125970000Y-76880000D01*
X125968796Y-76904504D01*
X125965196Y-76928773D01*
X125959235Y-76952571D01*
X125950970Y-76975671D01*
X125940480Y-76997849D01*
X125927867Y-77018893D01*
X125913253Y-77038598D01*
X125896777Y-77056777D01*
X125878598Y-77073253D01*
X125858893Y-77087867D01*
X125837849Y-77100480D01*
X125815671Y-77110970D01*
X125792571Y-77119235D01*
X125768773Y-77125196D01*
X125744504Y-77128796D01*
X125720000Y-77130000D01*
X124470000Y-77130000D01*
X124445496Y-77128796D01*
X124421227Y-77125196D01*
X124397429Y-77119235D01*
X124374329Y-77110970D01*
X124352151Y-77100480D01*
X124331107Y-77087867D01*
X124311402Y-77073253D01*
X124293223Y-77056777D01*
X124276747Y-77038598D01*
X124262133Y-77018893D01*
X124249520Y-76997849D01*
X124239030Y-76975671D01*
X124230765Y-76952571D01*
X124224804Y-76928773D01*
X124221204Y-76904504D01*
X124220000Y-76880000D01*
X124220000Y-75955000D01*
X124221204Y-75930496D01*
X124224804Y-75906227D01*
X124230765Y-75882429D01*
X124239030Y-75859329D01*
X124249520Y-75837151D01*
X124262133Y-75816107D01*
X124276747Y-75796402D01*
X124293223Y-75778223D01*
X124311402Y-75761747D01*
X124331107Y-75747133D01*
X124352151Y-75734520D01*
X124374329Y-75724030D01*
X124397429Y-75715765D01*
X124421227Y-75709804D01*
X124445496Y-75706204D01*
X124470000Y-75705000D01*
X125720000Y-75705000D01*
X125744504Y-75706204D01*
G37*
G04 #@! TD.AperFunction*
D15*
X121920000Y-71755000D03*
X121920000Y-74295000D03*
X121920000Y-76835000D03*
D16*
X126746000Y-74930000D03*
X123190000Y-77978000D03*
D17*
X123952000Y-57404000D03*
X132588000Y-57404000D03*
X132588000Y-83058000D03*
X126746000Y-83312000D03*
X137160000Y-64516000D03*
X137668000Y-67310000D03*
X137668000Y-70612000D03*
X137668000Y-74422000D03*
X137668000Y-76962000D03*
X137668000Y-79248000D03*
X135382000Y-76962000D03*
X119126000Y-67310000D03*
X119126000Y-70612000D03*
X118618000Y-74676000D03*
X118618000Y-77724000D03*
X123190000Y-68580000D03*
X129540000Y-63373000D03*
X128651000Y-69723000D03*
X130937000Y-73660000D03*
X130937000Y-77724000D03*
X127508000Y-68580000D03*
X123190000Y-75819000D03*
D18*
X130719500Y-73442500D02*
X130937000Y-73660000D01*
X130937000Y-73660000D02*
X130937000Y-77724000D01*
D19*
X126746000Y-73660000D02*
X127000000Y-73406000D01*
D18*
X125095000Y-73442500D02*
X127000000Y-73406000D01*
D19*
X126746000Y-74930000D02*
X126746000Y-73660000D01*
D18*
X127000000Y-73406000D02*
X130719500Y-73442500D01*
X120015000Y-73660000D02*
X121920000Y-71755000D01*
X120015000Y-77851000D02*
X120015000Y-73660000D01*
X124095000Y-81595000D02*
X123759000Y-81595000D01*
X123759000Y-81595000D02*
X120015000Y-77851000D01*
X126873000Y-69215000D02*
X127508000Y-68580000D01*
X123190000Y-75819000D02*
X123444000Y-75565000D01*
X123444000Y-72644000D02*
X126873000Y-69215000D01*
X123444000Y-75565000D02*
X123444000Y-72644000D01*
X124095000Y-77417500D02*
X125095000Y-76417500D01*
X124095000Y-79695000D02*
X124095000Y-77417500D01*
X123444000Y-79695000D02*
X124095000Y-79695000D01*
X121920000Y-76835000D02*
X121920000Y-78105000D01*
X121920000Y-78105000D02*
X123444000Y-79695000D01*
D20*
G36*
X132690001Y-61754419D02*
G01*
X132692819Y-61783030D01*
X132692753Y-61792456D01*
X132693652Y-61801627D01*
X132724742Y-62097431D01*
X132736771Y-62156028D01*
X132747980Y-62214790D01*
X132750644Y-62223612D01*
X132838598Y-62507743D01*
X132861773Y-62562875D01*
X132884186Y-62618349D01*
X132888513Y-62626486D01*
X133029979Y-62888122D01*
X133063412Y-62937689D01*
X133096183Y-62987768D01*
X133102007Y-62994909D01*
X133291597Y-63224084D01*
X133334015Y-63266206D01*
X133375897Y-63308976D01*
X133382998Y-63314850D01*
X133613492Y-63502836D01*
X133663334Y-63535951D01*
X133712674Y-63569735D01*
X133720781Y-63574118D01*
X133983399Y-63713754D01*
X134038701Y-63736548D01*
X134093684Y-63760114D01*
X134102487Y-63762839D01*
X134387225Y-63848807D01*
X134445910Y-63860427D01*
X134504418Y-63872863D01*
X134513581Y-63873826D01*
X134513583Y-63873826D01*
X134809596Y-63902850D01*
X134809598Y-63902850D01*
X134841581Y-63906000D01*
X138278000Y-63906000D01*
X138278001Y-83668000D01*
X118262000Y-83668000D01*
X118262000Y-73660000D01*
X119125719Y-73660000D01*
X119130001Y-73703479D01*
X119130000Y-77807531D01*
X119125719Y-77851000D01*
X119130000Y-77894469D01*
X119130000Y-77894476D01*
X119141212Y-78008314D01*
X119142805Y-78024490D01*
X119157834Y-78074032D01*
X119193411Y-78191312D01*
X119275589Y-78345058D01*
X119386183Y-78479817D01*
X119419956Y-78507534D01*
X120751806Y-79839384D01*
X120557905Y-79919701D01*
X120306495Y-80087688D01*
X120092688Y-80301495D01*
X119924701Y-80552905D01*
X119808989Y-80832257D01*
X119750000Y-81128816D01*
X119750000Y-81431184D01*
X119808989Y-81727743D01*
X119924701Y-82007095D01*
X120092688Y-82258505D01*
X120306495Y-82472312D01*
X120557905Y-82640299D01*
X120837257Y-82756011D01*
X121133816Y-82815000D01*
X121436184Y-82815000D01*
X121732743Y-82756011D01*
X122012095Y-82640299D01*
X122263505Y-82472312D01*
X122477312Y-82258505D01*
X122645299Y-82007095D01*
X122725616Y-81813195D01*
X123017799Y-82105378D01*
X123019188Y-82119482D01*
X123055498Y-82239180D01*
X123114463Y-82349494D01*
X123193815Y-82446185D01*
X123290506Y-82525537D01*
X123400820Y-82584502D01*
X123520518Y-82620812D01*
X123645000Y-82633072D01*
X124545000Y-82633072D01*
X124669482Y-82620812D01*
X124789180Y-82584502D01*
X124899494Y-82525537D01*
X124996185Y-82446185D01*
X125075537Y-82349494D01*
X125134502Y-82239180D01*
X125170812Y-82119482D01*
X125183072Y-81995000D01*
X125183072Y-81483095D01*
X125193815Y-81496185D01*
X125290506Y-81575537D01*
X125400820Y-81634502D01*
X125520518Y-81670812D01*
X125645000Y-81683072D01*
X126545000Y-81683072D01*
X126669482Y-81670812D01*
X126789180Y-81634502D01*
X126899494Y-81575537D01*
X126996185Y-81496185D01*
X127075537Y-81399494D01*
X127134502Y-81289180D01*
X127170812Y-81169482D01*
X127174817Y-81128816D01*
X134355000Y-81128816D01*
X134355000Y-81431184D01*
X134413989Y-81727743D01*
X134529701Y-82007095D01*
X134697688Y-82258505D01*
X134911495Y-82472312D01*
X135162905Y-82640299D01*
X135442257Y-82756011D01*
X135738816Y-82815000D01*
X136041184Y-82815000D01*
X136337743Y-82756011D01*
X136617095Y-82640299D01*
X136868505Y-82472312D01*
X137082312Y-82258505D01*
X137250299Y-82007095D01*
X137366011Y-81727743D01*
X137425000Y-81431184D01*
X137425000Y-81128816D01*
X137366011Y-80832257D01*
X137250299Y-80552905D01*
X137082312Y-80301495D01*
X136868505Y-80087688D01*
X136617095Y-79919701D01*
X136337743Y-79803989D01*
X136041184Y-79745000D01*
X135738816Y-79745000D01*
X135442257Y-79803989D01*
X135162905Y-79919701D01*
X134911495Y-80087688D01*
X134697688Y-80301495D01*
X134529701Y-80552905D01*
X134413989Y-80832257D01*
X134355000Y-81128816D01*
X127174817Y-81128816D01*
X127183072Y-81045000D01*
X127183072Y-80245000D01*
X127170812Y-80120518D01*
X127134502Y-80000820D01*
X127075537Y-79890506D01*
X126996185Y-79793815D01*
X126899494Y-79714463D01*
X126789180Y-79655498D01*
X126669482Y-79619188D01*
X126545000Y-79606928D01*
X125645000Y-79606928D01*
X125520518Y-79619188D01*
X125400820Y-79655498D01*
X125290506Y-79714463D01*
X125193815Y-79793815D01*
X125183072Y-79806905D01*
X125183072Y-79295000D01*
X125170812Y-79170518D01*
X125134502Y-79050820D01*
X125075537Y-78940506D01*
X124996185Y-78843815D01*
X124980000Y-78830532D01*
X124980000Y-77784078D01*
X124996006Y-77768072D01*
X125720000Y-77768072D01*
X125893254Y-77751008D01*
X126059850Y-77700472D01*
X126213386Y-77618405D01*
X126347962Y-77507962D01*
X126458405Y-77373386D01*
X126540472Y-77219850D01*
X126591008Y-77053254D01*
X126608072Y-76880000D01*
X126608072Y-75955000D01*
X126591008Y-75781746D01*
X126540472Y-75615150D01*
X126458405Y-75461614D01*
X126347962Y-75327038D01*
X126213386Y-75216595D01*
X126059850Y-75134528D01*
X125893254Y-75083992D01*
X125720000Y-75066928D01*
X124470000Y-75066928D01*
X124329000Y-75080815D01*
X124329000Y-74792504D01*
X124809250Y-74790000D01*
X124968000Y-74631250D01*
X124968000Y-73569500D01*
X125222000Y-73569500D01*
X125222000Y-74631250D01*
X125380750Y-74790000D01*
X125970000Y-74793072D01*
X126094482Y-74780812D01*
X126214180Y-74744502D01*
X126324494Y-74685537D01*
X126421185Y-74606185D01*
X126500537Y-74509494D01*
X126559502Y-74399180D01*
X126595812Y-74279482D01*
X126608072Y-74155000D01*
X126605000Y-73728250D01*
X126446250Y-73569500D01*
X125222000Y-73569500D01*
X124968000Y-73569500D01*
X124948000Y-73569500D01*
X124948000Y-73315500D01*
X124968000Y-73315500D01*
X124968000Y-73295500D01*
X125222000Y-73295500D01*
X125222000Y-73315500D01*
X126446250Y-73315500D01*
X126605000Y-73156750D01*
X126608072Y-72730000D01*
X126595812Y-72605518D01*
X126559502Y-72485820D01*
X126500537Y-72375506D01*
X126421185Y-72278815D01*
X126324494Y-72199463D01*
X126214180Y-72140498D01*
X126094482Y-72104188D01*
X125970000Y-72091928D01*
X125380750Y-72095000D01*
X125222002Y-72253748D01*
X125222002Y-72117576D01*
X127529532Y-69810047D01*
X127529536Y-69810042D01*
X127753043Y-69586535D01*
X127809898Y-69575226D01*
X127998256Y-69497205D01*
X128167774Y-69383937D01*
X128311937Y-69239774D01*
X128425205Y-69070256D01*
X128503226Y-68881898D01*
X128543000Y-68681939D01*
X128543000Y-68478061D01*
X128503226Y-68278102D01*
X128425205Y-68089744D01*
X128311937Y-67920226D01*
X128167774Y-67776063D01*
X127998256Y-67662795D01*
X127809898Y-67584774D01*
X127609939Y-67545000D01*
X127406061Y-67545000D01*
X127206102Y-67584774D01*
X127017744Y-67662795D01*
X126848226Y-67776063D01*
X126704063Y-67920226D01*
X126590795Y-68089744D01*
X126512774Y-68278102D01*
X126501465Y-68334957D01*
X126277958Y-68558464D01*
X126277953Y-68558468D01*
X123265025Y-71571397D01*
X123222928Y-71359761D01*
X123120785Y-71113167D01*
X122972497Y-70891238D01*
X122783762Y-70702503D01*
X122561833Y-70554215D01*
X122315239Y-70452072D01*
X122053456Y-70400000D01*
X121786544Y-70400000D01*
X121524761Y-70452072D01*
X121278167Y-70554215D01*
X121056238Y-70702503D01*
X120867503Y-70891238D01*
X120719215Y-71113167D01*
X120617072Y-71359761D01*
X120565000Y-71621544D01*
X120565000Y-71858421D01*
X119419951Y-73003471D01*
X119386184Y-73031183D01*
X119358471Y-73064951D01*
X119358468Y-73064954D01*
X119275590Y-73165941D01*
X119193412Y-73319687D01*
X119142805Y-73486510D01*
X119125719Y-73660000D01*
X118262000Y-73660000D01*
X118262000Y-65811000D01*
X121698419Y-65811000D01*
X121727039Y-65808181D01*
X121736456Y-65808247D01*
X121745627Y-65807348D01*
X122041431Y-65776258D01*
X122100028Y-65764229D01*
X122158790Y-65753020D01*
X122167612Y-65750356D01*
X122451743Y-65662402D01*
X122506875Y-65639227D01*
X122562349Y-65616814D01*
X122570486Y-65612487D01*
X122832122Y-65471021D01*
X122881689Y-65437588D01*
X122931768Y-65404817D01*
X122938909Y-65398993D01*
X123168084Y-65209403D01*
X123210206Y-65166985D01*
X123252976Y-65125103D01*
X123258850Y-65118002D01*
X123446836Y-64887508D01*
X123479951Y-64837666D01*
X123513735Y-64788326D01*
X123518118Y-64780219D01*
X123657754Y-64517601D01*
X123680548Y-64462299D01*
X123704114Y-64407316D01*
X123706839Y-64398513D01*
X123792807Y-64113775D01*
X123804427Y-64055090D01*
X123816863Y-63996582D01*
X123817826Y-63987417D01*
X123846850Y-63691404D01*
X123846850Y-63691402D01*
X123850000Y-63659419D01*
X123850000Y-58940000D01*
X124341928Y-58940000D01*
X124341928Y-60440000D01*
X124354188Y-60564482D01*
X124390498Y-60684180D01*
X124449463Y-60794494D01*
X124528815Y-60891185D01*
X124625506Y-60970537D01*
X124735820Y-61029502D01*
X124855518Y-61065812D01*
X124980000Y-61078072D01*
X126480000Y-61078072D01*
X126604482Y-61065812D01*
X126724180Y-61029502D01*
X126834494Y-60970537D01*
X126931185Y-60891185D01*
X127010537Y-60794494D01*
X127069502Y-60684180D01*
X127080782Y-60646993D01*
X127492612Y-60646993D01*
X127558137Y-60885860D01*
X127805116Y-61001760D01*
X128069960Y-61067250D01*
X128342492Y-61079812D01*
X128612238Y-61038965D01*
X128868832Y-60946277D01*
X128981863Y-60885860D01*
X129047388Y-60646993D01*
X128270000Y-59869605D01*
X127492612Y-60646993D01*
X127080782Y-60646993D01*
X127105812Y-60564482D01*
X127118072Y-60440000D01*
X127118072Y-60413914D01*
X127313007Y-60467388D01*
X128090395Y-59690000D01*
X128449605Y-59690000D01*
X129226993Y-60467388D01*
X129465860Y-60401863D01*
X129540164Y-60243523D01*
X129582629Y-60346043D01*
X129734201Y-60572886D01*
X129927114Y-60765799D01*
X130153957Y-60917371D01*
X130406011Y-61021775D01*
X130673589Y-61075000D01*
X130946411Y-61075000D01*
X131213989Y-61021775D01*
X131466043Y-60917371D01*
X131692886Y-60765799D01*
X131885799Y-60572886D01*
X132037371Y-60346043D01*
X132141775Y-60093989D01*
X132195000Y-59826411D01*
X132195000Y-59553589D01*
X132141775Y-59286011D01*
X132037371Y-59033957D01*
X131885799Y-58807114D01*
X131692886Y-58614201D01*
X131466043Y-58462629D01*
X131213989Y-58358225D01*
X130946411Y-58305000D01*
X130673589Y-58305000D01*
X130406011Y-58358225D01*
X130153957Y-58462629D01*
X129927114Y-58614201D01*
X129734201Y-58807114D01*
X129582629Y-59033957D01*
X129541489Y-59133279D01*
X129526277Y-59091168D01*
X129465860Y-58978137D01*
X129226993Y-58912612D01*
X128449605Y-59690000D01*
X128090395Y-59690000D01*
X127313007Y-58912612D01*
X127118072Y-58966086D01*
X127118072Y-58940000D01*
X127105812Y-58815518D01*
X127080783Y-58733007D01*
X127492612Y-58733007D01*
X128270000Y-59510395D01*
X129047388Y-58733007D01*
X128981863Y-58494140D01*
X128734884Y-58378240D01*
X128470040Y-58312750D01*
X128197508Y-58300188D01*
X127927762Y-58341035D01*
X127671168Y-58433723D01*
X127558137Y-58494140D01*
X127492612Y-58733007D01*
X127080783Y-58733007D01*
X127069502Y-58695820D01*
X127010537Y-58585506D01*
X126931185Y-58488815D01*
X126834494Y-58409463D01*
X126724180Y-58350498D01*
X126604482Y-58314188D01*
X126480000Y-58301928D01*
X124980000Y-58301928D01*
X124855518Y-58314188D01*
X124735820Y-58350498D01*
X124625506Y-58409463D01*
X124528815Y-58488815D01*
X124449463Y-58585506D01*
X124390498Y-58695820D01*
X124354188Y-58815518D01*
X124341928Y-58940000D01*
X123850000Y-58940000D01*
X123850000Y-56794000D01*
X132690000Y-56794000D01*
X132690001Y-61754419D01*
G37*
X132690001Y-61754419D02*
X132692819Y-61783030D01*
X132692753Y-61792456D01*
X132693652Y-61801627D01*
X132724742Y-62097431D01*
X132736771Y-62156028D01*
X132747980Y-62214790D01*
X132750644Y-62223612D01*
X132838598Y-62507743D01*
X132861773Y-62562875D01*
X132884186Y-62618349D01*
X132888513Y-62626486D01*
X133029979Y-62888122D01*
X133063412Y-62937689D01*
X133096183Y-62987768D01*
X133102007Y-62994909D01*
X133291597Y-63224084D01*
X133334015Y-63266206D01*
X133375897Y-63308976D01*
X133382998Y-63314850D01*
X133613492Y-63502836D01*
X133663334Y-63535951D01*
X133712674Y-63569735D01*
X133720781Y-63574118D01*
X133983399Y-63713754D01*
X134038701Y-63736548D01*
X134093684Y-63760114D01*
X134102487Y-63762839D01*
X134387225Y-63848807D01*
X134445910Y-63860427D01*
X134504418Y-63872863D01*
X134513581Y-63873826D01*
X134513583Y-63873826D01*
X134809596Y-63902850D01*
X134809598Y-63902850D01*
X134841581Y-63906000D01*
X138278000Y-63906000D01*
X138278001Y-83668000D01*
X118262000Y-83668000D01*
X118262000Y-73660000D01*
X119125719Y-73660000D01*
X119130001Y-73703479D01*
X119130000Y-77807531D01*
X119125719Y-77851000D01*
X119130000Y-77894469D01*
X119130000Y-77894476D01*
X119141212Y-78008314D01*
X119142805Y-78024490D01*
X119157834Y-78074032D01*
X119193411Y-78191312D01*
X119275589Y-78345058D01*
X119386183Y-78479817D01*
X119419956Y-78507534D01*
X120751806Y-79839384D01*
X120557905Y-79919701D01*
X120306495Y-80087688D01*
X120092688Y-80301495D01*
X119924701Y-80552905D01*
X119808989Y-80832257D01*
X119750000Y-81128816D01*
X119750000Y-81431184D01*
X119808989Y-81727743D01*
X119924701Y-82007095D01*
X120092688Y-82258505D01*
X120306495Y-82472312D01*
X120557905Y-82640299D01*
X120837257Y-82756011D01*
X121133816Y-82815000D01*
X121436184Y-82815000D01*
X121732743Y-82756011D01*
X122012095Y-82640299D01*
X122263505Y-82472312D01*
X122477312Y-82258505D01*
X122645299Y-82007095D01*
X122725616Y-81813195D01*
X123017799Y-82105378D01*
X123019188Y-82119482D01*
X123055498Y-82239180D01*
X123114463Y-82349494D01*
X123193815Y-82446185D01*
X123290506Y-82525537D01*
X123400820Y-82584502D01*
X123520518Y-82620812D01*
X123645000Y-82633072D01*
X124545000Y-82633072D01*
X124669482Y-82620812D01*
X124789180Y-82584502D01*
X124899494Y-82525537D01*
X124996185Y-82446185D01*
X125075537Y-82349494D01*
X125134502Y-82239180D01*
X125170812Y-82119482D01*
X125183072Y-81995000D01*
X125183072Y-81483095D01*
X125193815Y-81496185D01*
X125290506Y-81575537D01*
X125400820Y-81634502D01*
X125520518Y-81670812D01*
X125645000Y-81683072D01*
X126545000Y-81683072D01*
X126669482Y-81670812D01*
X126789180Y-81634502D01*
X126899494Y-81575537D01*
X126996185Y-81496185D01*
X127075537Y-81399494D01*
X127134502Y-81289180D01*
X127170812Y-81169482D01*
X127174817Y-81128816D01*
X134355000Y-81128816D01*
X134355000Y-81431184D01*
X134413989Y-81727743D01*
X134529701Y-82007095D01*
X134697688Y-82258505D01*
X134911495Y-82472312D01*
X135162905Y-82640299D01*
X135442257Y-82756011D01*
X135738816Y-82815000D01*
X136041184Y-82815000D01*
X136337743Y-82756011D01*
X136617095Y-82640299D01*
X136868505Y-82472312D01*
X137082312Y-82258505D01*
X137250299Y-82007095D01*
X137366011Y-81727743D01*
X137425000Y-81431184D01*
X137425000Y-81128816D01*
X137366011Y-80832257D01*
X137250299Y-80552905D01*
X137082312Y-80301495D01*
X136868505Y-80087688D01*
X136617095Y-79919701D01*
X136337743Y-79803989D01*
X136041184Y-79745000D01*
X135738816Y-79745000D01*
X135442257Y-79803989D01*
X135162905Y-79919701D01*
X134911495Y-80087688D01*
X134697688Y-80301495D01*
X134529701Y-80552905D01*
X134413989Y-80832257D01*
X134355000Y-81128816D01*
X127174817Y-81128816D01*
X127183072Y-81045000D01*
X127183072Y-80245000D01*
X127170812Y-80120518D01*
X127134502Y-80000820D01*
X127075537Y-79890506D01*
X126996185Y-79793815D01*
X126899494Y-79714463D01*
X126789180Y-79655498D01*
X126669482Y-79619188D01*
X126545000Y-79606928D01*
X125645000Y-79606928D01*
X125520518Y-79619188D01*
X125400820Y-79655498D01*
X125290506Y-79714463D01*
X125193815Y-79793815D01*
X125183072Y-79806905D01*
X125183072Y-79295000D01*
X125170812Y-79170518D01*
X125134502Y-79050820D01*
X125075537Y-78940506D01*
X124996185Y-78843815D01*
X124980000Y-78830532D01*
X124980000Y-77784078D01*
X124996006Y-77768072D01*
X125720000Y-77768072D01*
X125893254Y-77751008D01*
X126059850Y-77700472D01*
X126213386Y-77618405D01*
X126347962Y-77507962D01*
X126458405Y-77373386D01*
X126540472Y-77219850D01*
X126591008Y-77053254D01*
X126608072Y-76880000D01*
X126608072Y-75955000D01*
X126591008Y-75781746D01*
X126540472Y-75615150D01*
X126458405Y-75461614D01*
X126347962Y-75327038D01*
X126213386Y-75216595D01*
X126059850Y-75134528D01*
X125893254Y-75083992D01*
X125720000Y-75066928D01*
X124470000Y-75066928D01*
X124329000Y-75080815D01*
X124329000Y-74792504D01*
X124809250Y-74790000D01*
X124968000Y-74631250D01*
X124968000Y-73569500D01*
X125222000Y-73569500D01*
X125222000Y-74631250D01*
X125380750Y-74790000D01*
X125970000Y-74793072D01*
X126094482Y-74780812D01*
X126214180Y-74744502D01*
X126324494Y-74685537D01*
X126421185Y-74606185D01*
X126500537Y-74509494D01*
X126559502Y-74399180D01*
X126595812Y-74279482D01*
X126608072Y-74155000D01*
X126605000Y-73728250D01*
X126446250Y-73569500D01*
X125222000Y-73569500D01*
X124968000Y-73569500D01*
X124948000Y-73569500D01*
X124948000Y-73315500D01*
X124968000Y-73315500D01*
X124968000Y-73295500D01*
X125222000Y-73295500D01*
X125222000Y-73315500D01*
X126446250Y-73315500D01*
X126605000Y-73156750D01*
X126608072Y-72730000D01*
X126595812Y-72605518D01*
X126559502Y-72485820D01*
X126500537Y-72375506D01*
X126421185Y-72278815D01*
X126324494Y-72199463D01*
X126214180Y-72140498D01*
X126094482Y-72104188D01*
X125970000Y-72091928D01*
X125380750Y-72095000D01*
X125222002Y-72253748D01*
X125222002Y-72117576D01*
X127529532Y-69810047D01*
X127529536Y-69810042D01*
X127753043Y-69586535D01*
X127809898Y-69575226D01*
X127998256Y-69497205D01*
X128167774Y-69383937D01*
X128311937Y-69239774D01*
X128425205Y-69070256D01*
X128503226Y-68881898D01*
X128543000Y-68681939D01*
X128543000Y-68478061D01*
X128503226Y-68278102D01*
X128425205Y-68089744D01*
X128311937Y-67920226D01*
X128167774Y-67776063D01*
X127998256Y-67662795D01*
X127809898Y-67584774D01*
X127609939Y-67545000D01*
X127406061Y-67545000D01*
X127206102Y-67584774D01*
X127017744Y-67662795D01*
X126848226Y-67776063D01*
X126704063Y-67920226D01*
X126590795Y-68089744D01*
X126512774Y-68278102D01*
X126501465Y-68334957D01*
X126277958Y-68558464D01*
X126277953Y-68558468D01*
X123265025Y-71571397D01*
X123222928Y-71359761D01*
X123120785Y-71113167D01*
X122972497Y-70891238D01*
X122783762Y-70702503D01*
X122561833Y-70554215D01*
X122315239Y-70452072D01*
X122053456Y-70400000D01*
X121786544Y-70400000D01*
X121524761Y-70452072D01*
X121278167Y-70554215D01*
X121056238Y-70702503D01*
X120867503Y-70891238D01*
X120719215Y-71113167D01*
X120617072Y-71359761D01*
X120565000Y-71621544D01*
X120565000Y-71858421D01*
X119419951Y-73003471D01*
X119386184Y-73031183D01*
X119358471Y-73064951D01*
X119358468Y-73064954D01*
X119275590Y-73165941D01*
X119193412Y-73319687D01*
X119142805Y-73486510D01*
X119125719Y-73660000D01*
X118262000Y-73660000D01*
X118262000Y-65811000D01*
X121698419Y-65811000D01*
X121727039Y-65808181D01*
X121736456Y-65808247D01*
X121745627Y-65807348D01*
X122041431Y-65776258D01*
X122100028Y-65764229D01*
X122158790Y-65753020D01*
X122167612Y-65750356D01*
X122451743Y-65662402D01*
X122506875Y-65639227D01*
X122562349Y-65616814D01*
X122570486Y-65612487D01*
X122832122Y-65471021D01*
X122881689Y-65437588D01*
X122931768Y-65404817D01*
X122938909Y-65398993D01*
X123168084Y-65209403D01*
X123210206Y-65166985D01*
X123252976Y-65125103D01*
X123258850Y-65118002D01*
X123446836Y-64887508D01*
X123479951Y-64837666D01*
X123513735Y-64788326D01*
X123518118Y-64780219D01*
X123657754Y-64517601D01*
X123680548Y-64462299D01*
X123704114Y-64407316D01*
X123706839Y-64398513D01*
X123792807Y-64113775D01*
X123804427Y-64055090D01*
X123816863Y-63996582D01*
X123817826Y-63987417D01*
X123846850Y-63691404D01*
X123846850Y-63691402D01*
X123850000Y-63659419D01*
X123850000Y-58940000D01*
X124341928Y-58940000D01*
X124341928Y-60440000D01*
X124354188Y-60564482D01*
X124390498Y-60684180D01*
X124449463Y-60794494D01*
X124528815Y-60891185D01*
X124625506Y-60970537D01*
X124735820Y-61029502D01*
X124855518Y-61065812D01*
X124980000Y-61078072D01*
X126480000Y-61078072D01*
X126604482Y-61065812D01*
X126724180Y-61029502D01*
X126834494Y-60970537D01*
X126931185Y-60891185D01*
X127010537Y-60794494D01*
X127069502Y-60684180D01*
X127080782Y-60646993D01*
X127492612Y-60646993D01*
X127558137Y-60885860D01*
X127805116Y-61001760D01*
X128069960Y-61067250D01*
X128342492Y-61079812D01*
X128612238Y-61038965D01*
X128868832Y-60946277D01*
X128981863Y-60885860D01*
X129047388Y-60646993D01*
X128270000Y-59869605D01*
X127492612Y-60646993D01*
X127080782Y-60646993D01*
X127105812Y-60564482D01*
X127118072Y-60440000D01*
X127118072Y-60413914D01*
X127313007Y-60467388D01*
X128090395Y-59690000D01*
X128449605Y-59690000D01*
X129226993Y-60467388D01*
X129465860Y-60401863D01*
X129540164Y-60243523D01*
X129582629Y-60346043D01*
X129734201Y-60572886D01*
X129927114Y-60765799D01*
X130153957Y-60917371D01*
X130406011Y-61021775D01*
X130673589Y-61075000D01*
X130946411Y-61075000D01*
X131213989Y-61021775D01*
X131466043Y-60917371D01*
X131692886Y-60765799D01*
X131885799Y-60572886D01*
X132037371Y-60346043D01*
X132141775Y-60093989D01*
X132195000Y-59826411D01*
X132195000Y-59553589D01*
X132141775Y-59286011D01*
X132037371Y-59033957D01*
X131885799Y-58807114D01*
X131692886Y-58614201D01*
X131466043Y-58462629D01*
X131213989Y-58358225D01*
X130946411Y-58305000D01*
X130673589Y-58305000D01*
X130406011Y-58358225D01*
X130153957Y-58462629D01*
X129927114Y-58614201D01*
X129734201Y-58807114D01*
X129582629Y-59033957D01*
X129541489Y-59133279D01*
X129526277Y-59091168D01*
X129465860Y-58978137D01*
X129226993Y-58912612D01*
X128449605Y-59690000D01*
X128090395Y-59690000D01*
X127313007Y-58912612D01*
X127118072Y-58966086D01*
X127118072Y-58940000D01*
X127105812Y-58815518D01*
X127080783Y-58733007D01*
X127492612Y-58733007D01*
X128270000Y-59510395D01*
X129047388Y-58733007D01*
X128981863Y-58494140D01*
X128734884Y-58378240D01*
X128470040Y-58312750D01*
X128197508Y-58300188D01*
X127927762Y-58341035D01*
X127671168Y-58433723D01*
X127558137Y-58494140D01*
X127492612Y-58733007D01*
X127080783Y-58733007D01*
X127069502Y-58695820D01*
X127010537Y-58585506D01*
X126931185Y-58488815D01*
X126834494Y-58409463D01*
X126724180Y-58350498D01*
X126604482Y-58314188D01*
X126480000Y-58301928D01*
X124980000Y-58301928D01*
X124855518Y-58314188D01*
X124735820Y-58350498D01*
X124625506Y-58409463D01*
X124528815Y-58488815D01*
X124449463Y-58585506D01*
X124390498Y-58695820D01*
X124354188Y-58815518D01*
X124341928Y-58940000D01*
X123850000Y-58940000D01*
X123850000Y-56794000D01*
X132690000Y-56794000D01*
X132690001Y-61754419D01*
G36*
X123355590Y-76923441D02*
G01*
X123273412Y-77077187D01*
X123222805Y-77244010D01*
X123205719Y-77417500D01*
X123210001Y-77460979D01*
X123210001Y-78171900D01*
X122862211Y-77809048D01*
X122972497Y-77698762D01*
X123120785Y-77476833D01*
X123222928Y-77230239D01*
X123275000Y-76968456D01*
X123275000Y-76854000D01*
X123291939Y-76854000D01*
X123436114Y-76825322D01*
X123355590Y-76923441D01*
G37*
X123355590Y-76923441D02*
X123273412Y-77077187D01*
X123222805Y-77244010D01*
X123205719Y-77417500D01*
X123210001Y-77460979D01*
X123210001Y-78171900D01*
X122862211Y-77809048D01*
X122972497Y-77698762D01*
X123120785Y-77476833D01*
X123222928Y-77230239D01*
X123275000Y-76968456D01*
X123275000Y-76854000D01*
X123291939Y-76854000D01*
X123436114Y-76825322D01*
X123355590Y-76923441D01*
M02*
